<svg xmlns="http://www.w3.org/2000/svg" xml:space="preserve" width="322.527mm" height="164.069mm" version="1.1" style="shape-rendering:geometricPrecision; text-rendering:geometricPrecision; image-rendering:optimizeQuality; fill-rule:evenodd; clip-rule:evenodd"
viewBox="0 0 18601 9463" xmlns:xlink="http://www.w3.org/1999/xlink">
<path style="fill:#EBECEC;" d="M2367 0l13868 0c248,0 451,203 451,452l0 8528c0,249 -203,452 -451,452l-13868 0c-249,0 -452,-203 -452,-452l0 -8528c0,-249 203,-452 452,-452zm29 595l13810 0 0 7616 -13810 0 0 -7616z"/>
<path style="fill:#C5C6C6;" d="M214 9463l18174 0c117,0 213,-97 213,-214l0 0c0,-118 -96,-214 -213,-214l-18174 0c-118,0 -214,96 -214,214l0 0c0,117 96,214 214,214z"/>
<polygon style="fill:#D9DADA;" points="0,8791 18601,8791 18601,9325 0,9325 "/>
<path style="fill:#C5C6C6;" d="M10579 8783l0 130c0,63 -52,115 -115,115l-2327 0c-63,0 -114,-52 -114,-115l0 -130 2556 0z"/>
</svg>