<svg xmlns="http://www.w3.org/2000/svg" xml:space="preserve" width="61.5201mm" height="128.86mm" version="1.1" style="shape-rendering:geometricPrecision; text-rendering:geometricPrecision; image-rendering:optimizeQuality; fill-rule:evenodd; clip-rule:evenodd"
viewBox="0 0 3275 6859"
 xmlns:xlink="http://www.w3.org/1999/xlink">
<path style="stroke:#C5C6C6;stroke-width:53.2307;fill:#FEFEFE;" d="M524 61l2264 0c253,0 460,207 460,461l0 5850c0,253 -207,461 -460,461l-2264 0c-254,0 -461,-208 -461,-461l0 -5850c0,-254 207,-461 461,-461zm-227 692l2717 0c12,0 21,9 21,20l0 5156c0,12 -9,21 -21,21l-2717 0c-11,0 -21,-9 -21,-21l0 -5156c0,-11 10,-20 21,-20z"/>
<path style="fill:#C5C6C6;" d="M2734 51l0 -36c0,-8 -7,-15 -16,-15l-486 0c-9,0 -16,7 -16,15l0 36 518 0z"/>
<path style="fill:#C5C6C6;" d="M51 945l-36 0c-8,0 -15,7 -15,16l0 267c0,9 7,16 15,16l36 0 0 -299z"/>
<path style="fill:#C5C6C6;" d="M51 1595l-36 0c-8,0 -15,7 -15,15l0 200c0,8 7,15 15,15l36 0 0 -230z"/>
<path style="fill:#C5C6C6;" d="M51 2161l-36 0c-8,0 -15,7 -15,15l0 200c0,8 7,15 15,15l36 0 0 -230z"/>
<rect style="fill:#C5C6C6;" x="1392" y="528" width="527.415" height="56.5975" rx="28" ry="28"/>
<circle style="fill:#C5C6C6;" cx="1656" cy="329" r="55"/>
<circle style="fill:#C5C6C6;" cx="1656" cy="6348" r="221"/>
</svg>
