<svg xmlns="http://www.w3.org/2000/svg" xml:space="preserve" width="147.306mm" height="208.433mm" version="1.1" style="shape-rendering:geometricPrecision; text-rendering:geometricPrecision; image-rendering:optimizeQuality; fill-rule:evenodd; clip-rule:evenodd"
viewBox="0 0 7882 11153" xmlns:xlink="http://www.w3.org/1999/xlink">
  <path style="stroke:#C5C6C6;stroke-width:53.5084;fill:#FEFEFE;" d="M365 27l7152 0c186,0 338,152 338,338l0 10423c0,186 -152,338 -338,338l-7152 0c-186,0 -338,-152 -338,-338l0 -10423c0,-186 152,-338 338,-338zm137 972l6878 0c4,0 6,2 6,5l0 9144c0,4 -2,6 -6,6l-6878 0c-3,0 -6,-2 -6,-6l0 -9144c0,-3 3,-5 6,-5z"/>
</svg>
