<svg width="55" height="55" viewBox="0 0 55 55" fill="none" xmlns="http://www.w3.org/2000/svg">
<path d="M51.2492 47.3196C53.3173 47.3196 55 45.6369 55 43.5686V5.37109C55 2.40947 52.5905 0 49.6289 0H5.37109C2.40947 0 0 2.40947 0 5.37109V43.5686C0 45.6369 1.68266 47.3196 3.75085 47.3196H4.94141V52.8516H1.07422C0.480928 52.8516 0 53.3326 0 53.9258C0 54.519 0.480928 55 1.07422 55H53.9258C54.5191 55 55 54.519 55 53.9258C55 53.3326 54.5191 52.8516 53.9258 52.8516H50.0586V47.3196H51.2492ZM2.14844 5.37109C2.14844 3.59412 3.59412 2.14844 5.37109 2.14844H49.6289C51.4059 2.14844 52.8516 3.59412 52.8516 5.37109V7.73438H2.25629C2.21987 7.73438 2.18389 7.73631 2.14844 7.73985V5.37109ZM11.8164 52.8516H7.08984V43.1836H11.8164V52.8516ZM23.8477 52.8516H19.1211V31.3062H23.8477V52.8516ZM35.8789 52.8516H31.1523V40.3906H35.8789V52.8516ZM48.9844 27.5537H42.1094C41.5161 27.5537 41.0352 28.0347 41.0352 28.6279V34.0526C41.0352 34.6458 41.5161 35.1268 42.1094 35.1268C42.7027 35.1268 43.1836 34.6458 43.1836 34.0526V29.7021H47.9102V52.8516H43.1836V41.2769C43.1836 40.6837 42.7027 40.2026 42.1094 40.2026C41.5161 40.2026 41.0352 40.6837 41.0352 41.2769V52.8516H38.0273V39.3164C38.0273 38.7232 37.5464 38.2422 36.9531 38.2422H30.0781C29.4848 38.2422 29.0039 38.7232 29.0039 39.3164V52.8516H25.9961V30.232C25.9961 29.6388 25.5152 29.1577 24.9219 29.1577H18.0469C17.4536 29.1577 16.9727 29.6388 16.9727 30.232V52.8516H13.9648V42.1094C13.9648 41.5162 13.4839 41.0352 12.8906 41.0352H6.01562C5.42233 41.0352 4.94141 41.5162 4.94141 42.1094V45.1711H3.75085C2.8672 45.1711 2.14844 44.4522 2.14844 43.5686V9.87733C2.18389 9.88088 2.21987 9.88281 2.25629 9.88281H52.8516V43.5686C52.8516 44.4522 52.1327 45.1711 51.2492 45.1711H50.0586V28.6279C50.0586 28.0347 49.5777 27.5537 48.9844 27.5537Z" fill="white"/>
<path d="M48.125 3.86719H23.8546C23.2613 3.86719 22.7804 4.34822 22.7804 4.94141C22.7804 5.53459 23.2613 6.01562 23.8546 6.01562H48.125C48.7183 6.01562 49.1992 5.53459 49.1992 4.94141C49.1992 4.34822 48.7183 3.86719 48.125 3.86719Z" fill="white"/>
<path d="M11.9313 4.18193C11.7315 3.98213 11.4544 3.86719 11.1719 3.86719C10.8894 3.86719 10.6122 3.98202 10.4124 4.18193C10.2126 4.38174 10.0977 4.65889 10.0977 4.94141C10.0977 5.22393 10.2126 5.50107 10.4124 5.70077C10.6122 5.90068 10.8894 6.01562 11.1719 6.01562C11.4544 6.01562 11.7315 5.90068 11.9313 5.70077C12.1312 5.50107 12.2461 5.22393 12.2461 4.94141C12.2461 4.65889 12.1312 4.38174 11.9313 4.18193Z" fill="white"/>
<path d="M7.63447 4.18193C7.43467 3.98213 7.15752 3.86719 6.875 3.86719C6.59248 3.86719 6.31533 3.98202 6.11553 4.18193C5.91572 4.38174 5.80078 4.65889 5.80078 4.94141C5.80078 5.22393 5.91572 5.50107 6.11553 5.70077C6.31533 5.90068 6.59248 6.01562 6.875 6.01562C7.15752 6.01562 7.43467 5.90068 7.63447 5.70077C7.83428 5.50107 7.94922 5.22393 7.94922 4.94141C7.94922 4.65889 7.83428 4.38174 7.63447 4.18193Z" fill="white"/>
<path d="M16.2282 4.18193C16.0284 3.98213 15.7523 3.86719 15.4688 3.86719C15.1862 3.86719 14.9091 3.98202 14.7093 4.18193C14.5095 4.38174 14.3945 4.65889 14.3945 4.94141C14.3945 5.22393 14.5095 5.50107 14.7093 5.70077C14.9091 5.90068 15.1862 6.01562 15.4688 6.01562C15.7513 6.01562 16.0284 5.90068 16.2282 5.70077C16.428 5.50107 16.543 5.22393 16.543 4.94141C16.543 4.65889 16.428 4.38174 16.2282 4.18193Z" fill="white"/>
<path d="M42.8688 37.1219C42.669 36.921 42.3919 36.8071 42.1094 36.8071C41.8269 36.8071 41.5497 36.9211 41.3499 37.1219C41.1501 37.3217 41.0352 37.5988 41.0352 37.8813C41.0352 38.1639 41.1501 38.441 41.3499 38.6408C41.5497 38.8405 41.8269 38.9556 42.1094 38.9556C42.3919 38.9556 42.669 38.8406 42.8688 38.6408C43.0687 38.441 43.1836 38.1639 43.1836 37.8813C43.1836 37.5978 43.0687 37.3217 42.8688 37.1219Z" fill="white"/>
<path d="M45.5469 14.6025C43.4145 14.6025 41.6797 16.3373 41.6797 18.4697C41.6797 19.3167 41.9542 20.1005 42.4178 20.7383L35.2823 27.8738C34.7286 27.5673 34.0924 27.3922 33.4159 27.3922C32.8063 27.3922 32.2294 27.5345 31.716 27.7869L24.2654 20.3362C24.5718 19.7824 24.7469 19.1463 24.7469 18.4697C24.7469 16.3373 23.0122 14.6025 20.8797 14.6025C18.7473 14.6025 17.0125 16.3373 17.0125 18.4697C17.0125 19.215 17.225 19.9113 17.5918 20.5024L11.2482 26.8458C10.6944 26.5394 10.0583 26.3643 9.38184 26.3643C7.2494 26.3643 5.51465 28.099 5.51465 30.2315C5.51465 32.3639 7.2494 34.0986 9.38184 34.0986C11.5143 34.0986 13.249 32.3639 13.249 30.2315C13.249 29.5549 13.0739 28.9188 12.7675 28.365L19.1868 21.9457C19.6984 22.1959 20.2729 22.3368 20.8797 22.3368C21.5562 22.3368 22.1923 22.1617 22.7461 21.8552L30.1238 29.2329C29.7596 29.8226 29.5487 30.5166 29.5487 31.2592C29.5487 33.3916 31.2834 35.1263 33.4159 35.1263C35.5483 35.1263 37.2831 33.3916 37.2831 31.2592C37.2831 30.5826 37.108 29.9465 36.8015 29.3927L44.1282 22.066C44.5679 22.2402 45.0462 22.3369 45.5469 22.3369C47.6793 22.3369 49.4141 20.6022 49.4141 18.4697C49.4141 16.3373 47.6793 14.6025 45.5469 14.6025ZM9.38194 31.9504C8.43427 31.9504 7.66319 31.1793 7.66319 30.2317C7.66319 29.284 8.43427 28.5129 9.38194 28.5129C10.3296 28.5129 11.1007 29.284 11.1007 30.2317C11.1007 31.1793 10.3296 31.9504 9.38194 31.9504ZM20.8798 20.1885C19.9322 20.1885 19.1611 19.4174 19.1611 18.4697C19.1611 17.5221 19.9322 16.751 20.8798 16.751C21.8275 16.751 22.5986 17.5221 22.5986 18.4697C22.5986 19.4174 21.8275 20.1885 20.8798 20.1885ZM33.416 32.9781C32.4683 32.9781 31.6972 32.207 31.6972 31.2594C31.6972 30.3117 32.4683 29.5406 33.416 29.5406C34.3637 29.5406 35.1347 30.3117 35.1347 31.2594C35.1347 32.207 34.3637 32.9781 33.416 32.9781ZM45.5469 20.1885C44.5992 20.1885 43.8282 19.4174 43.8282 18.4697C43.8282 17.5221 44.5992 16.751 45.5469 16.751C46.4946 16.751 47.2657 17.5221 47.2657 18.4697C47.2657 19.4174 46.4946 20.1885 45.5469 20.1885Z" fill="white"/>
<path d="M15.9339 13.852C15.733 13.6522 15.457 13.5371 15.1744 13.5371C14.8908 13.5371 14.6137 13.6521 14.4139 13.852C14.2141 14.0517 14.1002 14.3288 14.1002 14.6113C14.1002 14.8939 14.2141 15.171 14.4139 15.3708C14.6148 15.5706 14.8908 15.6856 15.1744 15.6856C15.457 15.6856 15.733 15.5707 15.9339 15.3708C16.1337 15.171 16.2487 14.8939 16.2487 14.6113C16.2487 14.3288 16.1337 14.0517 15.9339 13.852Z" fill="white"/>
<path d="M11.1719 13.5376H6.01562C5.42233 13.5376 4.94141 14.0186 4.94141 14.6118C4.94141 15.205 5.42233 15.686 6.01562 15.686H11.1719C11.7652 15.686 12.2461 15.205 12.2461 14.6118C12.2461 14.0186 11.7652 13.5376 11.1719 13.5376Z" fill="white"/>
<path d="M11.1719 18.6938H6.01562C5.42233 18.6938 4.94141 19.1749 4.94141 19.7681C4.94141 20.3612 5.42233 20.8423 6.01562 20.8423H11.1719C11.7652 20.8423 12.2461 20.3612 12.2461 19.7681C12.2461 19.1749 11.7652 18.6938 11.1719 18.6938Z" fill="white"/>
</svg>
