<svg width="99" height="75" viewBox="0 0 99 75" fill="none" xmlns="http://www.w3.org/2000/svg">
<path d="M32.1396 74.0005H67.219" stroke="black" stroke-miterlimit="22.9256" stroke-linecap="round" stroke-linejoin="round"/>
<path d="M39.3182 62.5933V67.0341C39.3182 70.8653 36.1832 74.0003 32.3521 74.0003H28.4905H24.6289M60.2371 62.5933V67.0341C60.2371 70.8653 63.3719 74.0003 67.2032 74.0003H74.9263" stroke="black" stroke-miterlimit="22.9256" stroke-linecap="round" stroke-linejoin="round"/>
<path d="M21.4863 39.5801H33.4097" stroke="black" stroke-miterlimit="22.9256" stroke-linecap="round" stroke-linejoin="round"/>
<path d="M21.4863 42.8428H35.9918" stroke="black" stroke-miterlimit="22.9256" stroke-linecap="round" stroke-linejoin="round"/>
<path d="M42.3887 39.5801H56.8941" stroke="black" stroke-miterlimit="22.9256" stroke-linecap="round" stroke-linejoin="round"/>
<path d="M42.3887 42.8428H56.8941" stroke="black" stroke-miterlimit="22.9256" stroke-linecap="round" stroke-linejoin="round"/>
<path d="M63.291 39.5801H77.7965" stroke="black" stroke-miterlimit="22.9256" stroke-linecap="round" stroke-linejoin="round"/>
<path d="M63.291 42.8428H77.7965" stroke="black" stroke-miterlimit="22.9256" stroke-linecap="round" stroke-linejoin="round"/>
<path d="M1 51.0293H98.356" stroke="black" stroke-miterlimit="22.9256" stroke-linecap="round" stroke-linejoin="round"/>
<path d="M17.5534 24.0359L14.8848 21.3673L17.5534 18.6987" stroke="black" stroke-miterlimit="22.9256" stroke-linecap="round" stroke-linejoin="round"/>
<path d="M80.9131 24.0359L83.5817 21.3673L80.9131 18.6987" stroke="black" stroke-miterlimit="22.9256" stroke-linecap="round" stroke-linejoin="round"/>
<path fill-rule="evenodd" clip-rule="evenodd" d="M43.4394 15.5698C44.4922 15.5698 45.3456 16.4233 45.3456 17.476C45.3456 18.5288 44.4922 19.3822 43.4394 19.3822C42.3866 19.3822 41.5332 18.5288 41.5332 17.476C41.5332 16.4233 42.3866 15.5698 43.4394 15.5698Z" stroke="black" stroke-miterlimit="22.9256" stroke-linecap="round" stroke-linejoin="round"/>
<path d="M49.2529 22.9013L54.0795 18.0747L59.1378 23.133" stroke="black" stroke-miterlimit="22.9256" stroke-linecap="round" stroke-linejoin="round"/>
<path d="M40.2227 27.1645L46.8652 20.522L49.2478 22.9047L51.859 25.5159" stroke="black" stroke-miterlimit="22.9256" stroke-linecap="round" stroke-linejoin="round"/>
<path fill-rule="evenodd" clip-rule="evenodd" d="M5.7224 62.593H93.6334C96.2308 62.593 98.3558 60.4678 98.3558 57.8706V5.7224C98.3558 3.12515 96.2307 1 93.6334 1H5.7224C3.12515 1 1 3.12515 1 5.7224V57.8706C1 60.4678 3.12515 62.593 5.7224 62.593V62.593Z" stroke="black" stroke-miterlimit="22.9256" stroke-linecap="round" stroke-linejoin="round"/>
<path fill-rule="evenodd" clip-rule="evenodd" d="M12.1627 9.58643H87.1946C88.6113 9.58643 89.7703 10.7456 89.7703 12.1623V30.5721C89.7703 31.9889 88.6113 33.148 87.1946 33.148H12.1627C10.7459 33.148 9.58691 31.9889 9.58691 30.5721V12.1623C9.58691 10.7456 10.7459 9.58643 12.1627 9.58643V9.58643Z" stroke="black" stroke-miterlimit="22.9256" stroke-linecap="round" stroke-linejoin="round"/>
</svg>
