<svg width="55" height="55" viewBox="0 0 55 55" fill="none" xmlns="http://www.w3.org/2000/svg">
<path d="M54.9216 10.3866C54.9216 7.01551 52.6203 4.09653 49.3911 3.28496C48.4237 1.27563 46.4128 0 44.1536 0H21.7819C19.6217 0 17.6667 1.18572 16.6603 3.06099H7.4039C3.36451 3.06099 0.0783691 6.34724 0.0783691 10.3866V47.6749C0.0783691 51.714 3.3644 55 7.40336 55H15.1614C15.6064 55 15.967 54.6393 15.967 54.1943C15.967 53.7494 15.6064 53.3887 15.1614 53.3887H7.40347C4.25289 53.3887 1.6898 50.8255 1.6898 47.6749V20.6067C1.6898 17.4562 4.25289 14.893 7.40347 14.893H20.1931C22.124 14.893 23.9095 15.8565 24.9692 17.4708L27.892 21.9212C29.2505 23.9904 31.5395 25.2259 34.0151 25.2259H47.5964C50.747 25.2259 53.3101 27.7891 53.3101 30.9396V47.6749C53.3101 50.8255 50.747 53.3887 47.5964 53.3887H18.3841C17.9391 53.3887 17.5785 53.7494 17.5785 54.1943C17.5785 54.6393 17.9391 55 18.3841 55H47.5964C51.6355 55 54.9214 51.714 54.9214 47.6749L54.9216 10.3866ZM1.68959 16.0308V10.3866C1.68959 7.23572 4.253 4.67231 7.40379 4.67231H16.0793C16.0048 5.04561 15.967 5.42717 15.967 5.81475V7.64554H13.7835C10.6375 7.64554 8.06884 10.1578 7.97323 13.2816H7.40347C5.09465 13.2816 3.03322 14.3565 1.68959 16.0308ZM29.2389 21.0367L26.3161 16.5864C24.9576 14.5171 22.6685 13.2816 20.1931 13.2816H9.58456C9.6792 11.0463 11.526 9.25686 13.7835 9.25686H36.1549C38.4728 9.25686 40.3585 11.1431 40.3585 13.4616V23.6146H34.0151C32.0842 23.6146 30.2987 22.651 29.2389 21.0367ZM49.9683 24.0109V11.1848C49.9683 10.7398 49.6077 10.3791 49.1626 10.3791C48.7176 10.3791 48.357 10.7398 48.357 11.1848V23.6541C48.1069 23.6282 47.8533 23.6146 47.5964 23.6146H41.9698V13.4616C41.9698 10.2546 39.3613 7.64554 36.1549 7.64554H17.5785V5.81475C17.5785 5.24691 17.6892 4.69745 17.9081 4.18054C18.567 2.6198 20.0875 1.61133 21.7819 1.61133H44.1536C45.893 1.61133 47.4293 2.6574 48.0665 4.27453C48.2592 4.76728 48.357 5.28548 48.357 5.81464V8.0372C48.357 8.48214 48.7176 8.84286 49.1626 8.84286C49.6077 8.84286 49.9683 8.48214 49.9683 8.0372V5.81475C49.9683 5.59829 49.955 5.38345 49.9314 5.17022C51.9477 6.07181 53.3102 8.09521 53.3102 10.3867V26.3638C52.4497 25.2913 51.2945 24.4662 49.9683 24.0109Z" fill="white"/>
<path d="M37.788 13.3752C37.395 13.1663 36.9075 13.3157 36.6984 13.7085L33.7477 19.2602L31.7076 16.7211C31.429 16.3743 30.9219 16.3189 30.5749 16.5976C30.228 16.8764 30.1727 17.3834 30.4515 17.7303L33.2574 21.2224C33.4112 21.4137 33.6426 21.5234 33.8854 21.5234C33.9105 21.5234 33.9358 21.5222 33.9612 21.5198C34.2309 21.4944 34.4697 21.335 34.5969 21.0958L38.1214 14.4648C38.3301 14.0718 38.181 13.584 37.788 13.3752Z" fill="white"/>
<path d="M7.09644 30.2017H20.8386C21.2836 30.2017 21.6443 29.8409 21.6443 29.396C21.6443 28.9511 21.2836 28.5903 20.8386 28.5903H7.09644C6.65139 28.5903 6.29077 28.9511 6.29077 29.396C6.29077 29.8409 6.65149 30.2017 7.09644 30.2017Z" fill="white"/>
<path d="M7.09644 33.1826H20.8386C21.2836 33.1826 21.6443 32.8219 21.6443 32.377C21.6443 31.932 21.2836 31.5713 20.8386 31.5713H7.09644C6.65139 31.5713 6.29077 31.932 6.29077 32.377C6.29077 32.8219 6.65149 33.1826 7.09644 33.1826Z" fill="white"/>
</svg>
