<svg width="99" height="75" viewBox="0 0 99 75" fill="none" xmlns="http://www.w3.org/2000/svg">
<path fill-rule="evenodd" clip-rule="evenodd" d="M98.356 68.5532V71.248C98.356 72.7616 97.1174 74.0001 95.6038 74.0001H3.75216C2.23856 74.0001 1 72.7617 1 71.248V68.5532H42.3911C42.3911 70.0669 43.6297 71.3054 45.1433 71.3054H54.2127C55.7263 71.3054 56.9648 70.0668 56.9648 68.5532H98.356Z" stroke="black" stroke-miterlimit="22.9256" stroke-linecap="round" stroke-linejoin="round"/>
<path d="M8.11328 68.5532V14.209C8.11328 11.8793 10.0193 9.97314 12.3491 9.97314L69.5 10M82 10L87.2923 9.97314C89.622 9.97314 91.5281 11.8794 91.5281 14.209V68.5532" stroke="black" stroke-miterlimit="22.9256" stroke-linecap="round" stroke-linejoin="round"/>
<path d="M42.3906 68.5532H56.9643" stroke="black" stroke-miterlimit="22.9256" stroke-linecap="round" stroke-linejoin="round"/>
<path d="M58.0059 23.2632H81.9877" stroke="black" stroke-miterlimit="22.9256" stroke-linecap="round" stroke-linejoin="round"/>
<path d="M58.0059 27.1001H81.9877" stroke="black" stroke-miterlimit="22.9256" stroke-linecap="round" stroke-linejoin="round"/>
<path d="M58.0059 34.7744H72.1869" stroke="black" stroke-miterlimit="22.9256" stroke-linecap="round" stroke-linejoin="round"/>
<path d="M58.0059 38.6113H72.4091" stroke="black" stroke-miterlimit="22.9256" stroke-linecap="round" stroke-linejoin="round"/>
<path fill-rule="evenodd" clip-rule="evenodd" d="M61.1169 49.041H78.8766C80.5877 49.041 81.9877 50.441 81.9877 52.1521V52.1521C81.9877 53.8632 80.5877 55.2632 78.8766 55.2632H61.1169C59.4058 55.2632 58.0059 53.8632 58.0059 52.1521V52.1521C58.0059 50.441 59.4058 49.041 61.1169 49.041Z" stroke="black" stroke-miterlimit="22.9256" stroke-linecap="round" stroke-linejoin="round"/>
<path fill-rule="evenodd" clip-rule="evenodd" d="M17.0586 23.2632H49.0585V55.2631H17.0586V23.2632Z" stroke="black" stroke-miterlimit="22.9256" stroke-linecap="round" stroke-linejoin="round"/>
<path fill-rule="evenodd" clip-rule="evenodd" d="M32.805 50.0445H25.6158V37.6243H22.6462L20.2559 32.6654L25.9329 28.4819H29.2197C29.2197 29.3784 30.4148 31.1713 32.8051 31.1713C35.1957 31.1713 36.3907 29.3784 36.3907 28.4819H39.6772L45.3547 32.6654L42.9642 37.6243H39.9948V50.0445H32.805V50.0445Z" stroke="black" stroke-miterlimit="22.9256" stroke-linecap="round" stroke-linejoin="round"/>
<path fill-rule="evenodd" clip-rule="evenodd" d="M70.0105 4.33301L69.0194 15.2722C69.0194 15.2722 68.6944 16.9998 70.7049 16.9998C73.9801 16.9998 77.0921 16.9998 80.3672 16.9998C82.378 16.9998 82.0527 15.2722 82.0527 15.2722L81.0616 4.33301H70.0105Z" stroke="black" stroke-miterlimit="22.9256" stroke-linecap="round" stroke-linejoin="round"/>
<path d="M78.4248 6.44386V3.15243C78.4248 3.15243 78.5664 1 75.5362 1C72.5059 1 72.6475 3.15243 72.6475 3.15243V6.44386" stroke="black" stroke-miterlimit="22.9256" stroke-linecap="round" stroke-linejoin="round"/>
</svg>
