<svg width="98" height="74" viewBox="0 0 98 74" fill="none" xmlns="http://www.w3.org/2000/svg">
<path d="M29.2754 17.4547V5.55576C29.2754 3.05007 31.3223 1 33.8242 1H92.5628C95.0646 1 97.1118 3.05048 97.1115 5.55576L97.1056 65.0769L97.1115 68.6211C97.1157 71.1265 95.0642 73.1769 92.5628 73.1769H33.8242C31.3227 73.1769 29.2754 71.1268 29.2754 68.6211V38.3316" stroke="black" stroke-miterlimit="22.9256" stroke-linecap="round" stroke-linejoin="round"/>
<path d="M8.69824 25.7983H44.6028" stroke="black" stroke-miterlimit="22.9256" stroke-linecap="round" stroke-linejoin="round"/>
<path d="M8.69727 30.2773H62.7838" stroke="black" stroke-miterlimit="22.9256" stroke-linecap="round" stroke-linejoin="round"/>
<path d="M36.8076 48.1934H62.7849" stroke="black" stroke-miterlimit="22.9256" stroke-linecap="round" stroke-linejoin="round"/>
<path d="M36.8076 52.6719H62.7849" stroke="black" stroke-miterlimit="22.9256" stroke-linecap="round" stroke-linejoin="round"/>
<path d="M36.8076 60.1118H49.9476" stroke="black" stroke-miterlimit="22.9256" stroke-linecap="round" stroke-linejoin="round"/>
<path d="M36.8076 64.5908H49.9476" stroke="black" stroke-miterlimit="22.9256" stroke-linecap="round" stroke-linejoin="round"/>
<path d="M29.2754 8.36572H97.1113" stroke="black" stroke-miterlimit="22.9256" stroke-linecap="round" stroke-linejoin="round"/>
<path d="M34.54 4.91016H35.2105" stroke="black" stroke-miterlimit="22.9256" stroke-linecap="round" stroke-linejoin="round"/>
<path d="M40.0029 4.91016H40.6734" stroke="black" stroke-miterlimit="22.9256" stroke-linecap="round" stroke-linejoin="round"/>
<path d="M45.4658 4.91016H46.1363" stroke="black" stroke-miterlimit="22.9256" stroke-linecap="round" stroke-linejoin="round"/>
<path fill-rule="evenodd" clip-rule="evenodd" d="M70.2123 30.2315L70.2182 33.7757C70.2224 36.2811 68.1709 38.3314 65.6694 38.3314H5.5488C3.04727 38.3314 1 36.2814 1 33.7757V22.0103C1 19.5047 3.04694 17.4546 5.5488 17.4546H65.6694C68.1712 17.4546 70.22 19.5051 70.2182 22.0103L70.2123 30.2315V30.2315Z" stroke="black" stroke-miterlimit="22.9256" stroke-linecap="round" stroke-linejoin="round"/>
<path d="M80.6807 25.0703L93.3806 37.7897" stroke="black" stroke-miterlimit="22.9256" stroke-linecap="round" stroke-linejoin="round"/>
<path d="M80.6807 25.0703L83.569 33.9479" stroke="black" stroke-miterlimit="22.9256" stroke-linecap="round" stroke-linejoin="round"/>
<path d="M80.6807 25.0703L89.5447 27.963" stroke="black" stroke-miterlimit="22.9256" stroke-linecap="round" stroke-linejoin="round"/>
<path d="M77.8024 22.1871L75.0332 19.4136" stroke="black" stroke-miterlimit="22.9256" stroke-linecap="round" stroke-linejoin="round"/>
<path d="M76.9935 24.958H73.0771" stroke="black" stroke-miterlimit="22.9256" stroke-linecap="round" stroke-linejoin="round"/>
<path d="M80.5693 21.3769V17.4546" stroke="black" stroke-miterlimit="22.9256" stroke-linecap="round" stroke-linejoin="round"/>
<path d="M86.0144 19.7285L83.2451 22.502" stroke="black" stroke-miterlimit="22.9256" stroke-linecap="round" stroke-linejoin="round"/>
<path d="M78.1169 27.6382L75.3477 30.4117" stroke="black" stroke-miterlimit="22.9256" stroke-linecap="round" stroke-linejoin="round"/>
<path fill-rule="evenodd" clip-rule="evenodd" d="M89.5097 56.4914L89.5156 60.0356C89.5198 62.5406 87.4679 64.5914 84.9668 64.5914H74.7646C72.2635 64.5914 70.2158 62.5413 70.2158 60.0356V50.2061C70.2158 47.7005 72.2628 45.6504 74.7646 45.6504H84.9668C87.4686 45.6504 89.5179 47.7013 89.5156 50.2061L89.5097 56.4914Z" stroke="black" stroke-miterlimit="22.9256" stroke-linecap="round" stroke-linejoin="round"/>
<path d="M74.8877 52.6719H84.842M74.8877 57.1508H81.0564H74.8877Z" stroke="black" stroke-miterlimit="22.9256" stroke-linecap="round" stroke-linejoin="round"/>
<path d="M1 73.1766V65.9434H8.22218V73.1766" stroke="black" stroke-miterlimit="22.9256" stroke-linecap="round" stroke-linejoin="round"/>
<path d="M8.22168 73.1769V65.9437V58.7104H15.4439V65.9437V73.1769" stroke="black" stroke-miterlimit="22.9256" stroke-linecap="round" stroke-linejoin="round"/>
<path d="M15.4444 58.7102V51.4771H22.6665V58.7102V65.9435V73.1767H1" stroke="black" stroke-miterlimit="22.9256" stroke-linecap="round" stroke-linejoin="round"/>
</svg>
