<svg width="72" height="96" viewBox="0 0 72 96" fill="none" xmlns="http://www.w3.org/2000/svg">
<path d="M71.0349 0.348633H0V95.4915H71.0349V0.348633Z" fill="#4697CE"/>
<path d="M33.3054 29.3912C33.3315 29.925 33.3608 30.5076 33.3868 31.1357C33.4139 31.7685 33.4879 32.3984 33.6081 33.0202C33.723 33.6314 33.8975 34.2299 34.1289 34.8071C34.3525 35.3608 34.7025 35.8546 35.1509 36.249C35.4355 36.4859 35.7689 36.657 36.1273 36.7502C36.5503 36.873 36.9887 36.9344 37.4292 36.9325C37.8474 36.9357 38.2624 36.8606 38.653 36.7111C38.8263 36.6503 38.9842 36.5523 39.1157 36.4242C39.2473 36.296 39.3493 36.1407 39.4146 35.9691C39.6017 35.4813 39.7115 34.9674 39.7401 34.4458C39.7791 33.8828 39.8247 33.375 39.88 32.9193C39.9321 32.5711 39.9842 32.2326 40.0395 31.8974C40.093 31.5593 40.1202 31.2176 40.1209 30.8754C40.1203 30.5861 40.1465 30.2973 40.199 30.0129C40.2543 29.7297 40.3064 29.4433 40.3617 29.1503C40.5194 27.893 40.5792 26.6252 40.5407 25.3586C40.5017 24.1153 40.455 22.8513 40.4008 21.5668C40.3748 20.9723 40.3814 20.3769 40.4203 19.7832C40.4594 19.181 40.4822 18.5789 40.4822 17.9768C40.4818 17.3794 40.4339 16.783 40.3389 16.1932C40.244 15.5996 40.0756 15.0202 39.8377 14.4682C39.6636 14.0296 39.3634 13.6525 38.9752 13.3843C38.5932 13.1201 38.1648 12.9301 37.7124 12.8245C37.1481 12.6869 36.5562 12.714 36.0069 12.9026C35.588 13.0706 35.1912 13.2892 34.8254 13.5536C34.6485 13.6739 34.514 13.8471 34.4413 14.0483C34.2851 14.4877 34.1159 14.9238 33.9629 15.3502C33.7596 15.8947 33.6177 16.4602 33.5398 17.0362C33.4085 17.7165 33.3356 18.4069 33.3217 19.0997C33.3065 19.7832 33.2729 20.4721 33.2208 21.1664C33.0869 22.5335 33.0531 23.9085 33.1199 25.2804C33.185 26.6279 33.2468 28.0014 33.2989 29.3912H33.3054ZM43.4505 15.0703C43.6351 16.4792 43.6885 17.9022 43.61 19.321C43.5297 20.7401 43.5026 22.1711 43.5286 23.614C43.5547 24.8964 43.5612 26.1864 43.5481 27.4839C43.5351 28.7815 43.5156 30.0725 43.4896 31.3571C43.4635 31.8648 43.4635 32.4376 43.4896 33.0821C43.5156 33.7235 43.5025 34.3658 43.4505 35.0056C43.4041 35.6301 43.295 36.2484 43.125 36.8511C42.973 37.4017 42.675 37.901 42.2625 38.2962C41.8069 38.6976 41.3382 39.098 40.8565 39.4972C40.3947 39.8913 39.844 40.1672 39.2519 40.3011C38.6015 40.4625 37.9361 40.5563 37.2665 40.581C36.5986 40.6104 35.9299 40.5436 35.2811 40.3825C35.0402 40.3272 34.7733 40.2621 34.4804 40.1807C34.1987 40.1087 33.9379 39.9715 33.7188 39.7804C33.5173 39.6014 33.286 39.4593 33.0353 39.3605C32.7851 39.2612 32.5547 39.1179 32.3551 38.9374C31.912 38.6048 31.554 38.1721 31.3103 37.6745C31.0694 37.1798 30.8427 36.6786 30.63 36.1708C30.1888 35.1269 29.8984 34.0256 29.7675 32.8998C29.6471 31.8192 29.5462 30.6996 29.4648 29.5507C29.4128 28.8542 29.3705 28.1544 29.3444 27.4449C29.3184 26.7353 29.2923 26.0356 29.2663 25.339C29.237 24.7239 29.211 24.1087 29.1849 23.4936C29.1589 22.8784 29.1589 22.2633 29.1849 21.6482C29.211 20.9809 29.2175 20.3039 29.2045 19.6237C29.1914 18.9435 29.2045 18.26 29.2045 17.5765C29.2177 16.8982 29.2786 16.2217 29.3867 15.552C29.495 14.8811 29.6829 14.2255 29.9465 13.5992C30.5142 12.2818 31.3799 11.1142 32.4755 10.1882C33.099 9.6495 33.8404 9.26487 34.6399 9.06528C35.4531 8.85459 36.2869 8.73344 37.1265 8.70401C37.9214 8.67288 38.7096 8.86092 39.4048 9.24755C40.0944 9.6325 40.7175 10.1259 41.2503 10.7089C41.4799 10.993 41.7348 11.2555 42.0119 11.4933C42.29 11.7291 42.5124 12.0237 42.6628 12.3558C42.8765 12.7811 43.032 13.2333 43.125 13.7C43.2194 14.1655 43.3301 14.6277 43.4505 15.0833" fill="white"/>
<path d="M51.8603 25.98L53.2045 25.9018C53.6478 25.8809 54.0801 25.7572 54.4674 25.5406C54.8408 25.3282 55.1466 25.0145 55.3494 24.6358C55.5591 24.2589 55.7334 23.8633 55.8701 23.4543C56.1656 22.5975 56.3548 21.7078 56.4333 20.8049C56.5146 19.9117 56.5146 19.0129 56.4333 18.1197C56.3779 17.6641 56.3063 17.2149 56.2119 16.7755C56.1181 16.334 56.0841 15.8819 56.111 15.4313C56.111 14.9496 56.0915 14.5005 56.0524 14.0871C56.0253 13.8684 55.9536 13.6576 55.8416 13.4678C55.7296 13.278 55.5798 13.1132 55.4015 12.9838C55.0223 12.674 54.5853 12.4428 54.1159 12.3035C53.6008 12.1381 53.0694 12.0289 52.5308 11.978C51.9898 11.9225 51.4445 11.9225 50.9034 11.978C50.4145 12.0217 49.9313 12.1155 49.4616 12.2579C49.5136 14.5319 49.5332 16.7853 49.5202 19.0181C49.5071 21.2508 49.5006 23.5042 49.5006 25.7782C49.8447 25.9427 50.2227 26.0241 50.604 26.0158C51.0173 26.0158 51.4372 26.0158 51.8668 25.9767L51.8603 25.98ZM49.3802 32.356C49.4325 33.0252 49.4455 33.6968 49.4192 34.3675C49.3932 35.0347 49.3802 35.7052 49.3802 36.3724C49.3802 36.9355 49.3802 37.4953 49.3606 38.0583C49.3411 38.6214 49.3118 39.1812 49.2598 39.7443C49.2652 39.932 49.2226 40.118 49.1361 40.2846C49.0767 40.366 48.9962 40.4296 48.9033 40.4687C48.8103 40.5077 48.7085 40.5205 48.6088 40.5059C48.3094 40.4799 48.0067 40.4604 47.6942 40.4441C47.3818 40.4278 47.0758 40.4245 46.7796 40.4245C46.6569 40.4391 46.5324 40.425 46.416 40.3832C46.2996 40.3414 46.1946 40.2731 46.1092 40.1837C45.9865 40.0147 45.9235 39.8098 45.9302 39.6011C45.9314 39.3602 45.951 39.1197 45.9887 38.8818C46.026 38.6755 46.0467 38.4665 46.0506 38.2569C46.0506 37.4823 46.0636 36.7228 46.0896 35.9786C46.1157 35.243 46.132 34.4879 46.132 33.7002C46.184 32.2812 46.2101 30.8708 46.2101 29.4691C46.2101 28.0674 46.2502 26.657 46.3305 25.2379C46.5193 22.2696 46.5995 19.3283 46.5713 16.4143C46.5713 15.7177 46.5583 15.0429 46.5323 14.3898C46.5062 13.7389 46.49 13.0716 46.49 12.4044C46.49 11.9487 46.4835 11.4735 46.4704 10.9788C46.4549 10.5024 46.4899 10.0256 46.5746 9.5565C46.5871 9.47687 46.6173 9.40105 46.6629 9.3346C46.7085 9.26814 46.7684 9.21274 46.8382 9.17244C46.9959 9.07536 47.167 9.0019 47.346 8.95437C47.538 8.89892 47.7355 8.86508 47.9351 8.85348C48.1056 8.84492 48.2753 8.82425 48.4428 8.79163L50.0702 8.63215C50.6203 8.58007 51.1605 8.55078 51.6976 8.55078C52.2346 8.55078 52.8726 8.58007 53.4617 8.63215C54.0402 8.67911 54.612 8.78823 55.1671 8.95762C55.7061 9.12637 56.2187 9.36957 56.6903 9.68018C57.1819 10.0083 57.6098 10.423 57.9532 10.904C58.5181 11.709 58.9074 12.6239 59.0956 13.5891C59.2918 14.5437 59.4331 15.5087 59.5187 16.4794C59.6253 17.6185 59.659 18.7632 59.6196 19.9066C59.5784 21.0458 59.5318 22.1893 59.4797 23.3371C59.4779 23.8566 59.4233 24.3746 59.317 24.8831C59.2152 25.3873 59.0546 25.8778 58.8385 26.3445C58.6261 26.7947 58.3339 27.2027 57.976 27.5488C57.596 27.9075 57.1348 28.1688 56.6318 28.3104C56.0871 28.501 55.5304 28.6554 54.9654 28.7725C54.4053 28.8928 53.832 28.9399 53.2599 28.9125C52.6458 28.8865 52.0382 28.8333 51.4372 28.753C50.8319 28.6715 50.2194 28.6584 49.6113 28.714C49.6037 28.8953 49.583 29.0759 49.5494 29.2542C49.5104 29.5081 49.4778 29.8108 49.4518 30.1558C49.4257 30.5008 49.3965 30.8654 49.3704 31.2396C49.3444 31.6005 49.3444 31.9627 49.3704 32.3235" fill="white"/>
<path d="M32.3606 62.1472C32.3823 62.5986 32.4051 63.09 32.4289 63.6216C32.4505 64.1561 32.5126 64.6881 32.6145 65.2132C32.7107 65.7288 32.8578 66.2336 33.0538 66.7202C33.2422 67.1895 33.5389 67.6078 33.9196 67.9407C34.1606 68.1429 34.4444 68.2876 34.7496 68.3638C35.1015 68.4672 35.4666 68.5187 35.8334 68.5168C36.187 68.5206 36.5381 68.4576 36.8684 68.3313C37.0162 68.2804 37.151 68.1978 37.2635 68.0893C37.3759 67.9808 37.4633 67.849 37.5194 67.7031C37.6826 67.2925 37.7793 66.8585 37.8058 66.4175C37.8416 65.9423 37.8806 65.5127 37.9262 65.1156C37.9685 64.8226 38.0141 64.533 38.0596 64.2498C38.1055 63.9646 38.1284 63.6762 38.128 63.3873C38.1277 63.1427 38.1506 62.8986 38.1964 62.6582C38.2419 62.4206 38.2875 62.1798 38.3331 61.9292C38.4666 60.8672 38.5166 59.7963 38.4828 58.7265C38.4459 57.6763 38.4025 56.6087 38.3526 55.5238C38.3304 55.0216 38.3358 54.5185 38.3689 54.0169C38.4047 53.5059 38.4209 52.9981 38.4209 52.4904C38.4218 51.9856 38.3815 51.4817 38.3005 50.9834C38.2216 50.4815 38.0794 49.9915 37.8774 49.5253C37.7315 49.1543 37.4775 48.8356 37.1483 48.6107C36.8259 48.3859 36.4636 48.2246 36.0808 48.1355C35.6048 48.018 35.1049 48.0418 34.6422 48.2039C34.3093 48.3292 33.9934 48.4954 33.7015 48.6986C33.5123 48.827 33.3696 49.0131 33.2947 49.2291C33.171 49.5741 33.0441 49.9224 32.9139 50.2707C32.7425 50.7301 32.6224 51.2071 32.5559 51.693C32.4449 52.2693 32.3828 52.854 32.3703 53.4408C32.3703 54.0169 32.3313 54.5962 32.2857 55.1853C32.1734 56.3394 32.1451 57.5 32.2011 58.6581C32.2553 59.7995 32.3063 60.9582 32.3541 62.1342L32.3606 62.1472ZM40.9271 50.0331C41.0855 51.2195 41.1312 52.4182 41.0638 53.6133C40.9944 54.811 40.9716 56.0196 40.9954 57.2391C41.0193 58.324 41.0258 59.4089 41.015 60.4938C41.0041 61.5787 40.9868 62.6691 40.9629 63.7649C40.9401 64.1945 40.9401 64.6794 40.9629 65.223C40.9853 65.7656 40.9733 66.3092 40.9271 66.8503C40.8847 67.3795 40.7888 67.9029 40.6407 68.4126C40.5124 68.8769 40.2604 69.2977 39.9116 69.6299C39.5275 69.9717 39.1337 70.3102 38.7236 70.6486C38.3332 70.9798 37.8688 71.212 37.3696 71.3256C36.8207 71.4627 36.2589 71.5423 35.6935 71.5632C35.1284 71.5879 34.5628 71.5309 34.014 71.394C33.8122 71.3484 33.5844 71.2931 33.337 71.2247C33.0982 71.1668 32.8757 71.0555 32.6861 70.8993C32.5157 70.7482 32.3209 70.6272 32.11 70.5412C31.8978 70.4593 31.7025 70.339 31.5339 70.1865C31.1603 69.9046 30.8582 69.5389 30.6519 69.1189C30.4501 68.7023 30.258 68.2759 30.0758 67.8463C29.7028 66.9656 29.4573 66.0363 29.3467 65.0863C29.2447 64.1728 29.1601 63.2289 29.0928 62.2546C29.0472 61.6688 29.0147 61.0764 28.9919 60.4776C28.9691 59.8787 28.9464 59.2831 28.9236 58.6972L28.8552 57.1382C28.8324 56.6174 28.8324 56.0999 28.8552 55.5792C28.878 55.0584 28.8845 54.4432 28.8552 53.8672C28.8259 53.2911 28.8552 52.715 28.8552 52.1389C28.8686 51.5655 28.9197 50.9936 29.0082 50.4269C29.1014 49.857 29.2609 49.2999 29.4834 48.767C29.9632 47.6548 30.694 46.6689 31.6185 45.8865C32.1456 45.4311 32.772 45.1056 33.4477 44.9361C34.1354 44.7582 34.8404 44.6556 35.5502 44.6302C36.2246 44.603 36.8934 44.7618 37.4836 45.0891C38.0668 45.4142 38.5933 45.8319 39.0426 46.3259C39.2389 46.5626 39.4569 46.7805 39.6935 46.9768C39.924 47.1781 40.1083 47.4268 40.2338 47.7059C40.4141 48.0655 40.5454 48.4475 40.6244 48.8418C40.7025 49.2356 40.8001 49.6262 40.9108 50.0103" fill="white"/>
<path d="M52.746 44.5226C53.4815 44.5682 54.2117 44.6246 54.9364 44.6919C55.3602 44.7371 55.7861 44.7599 56.2123 44.7602H57.882C58.0022 44.7602 58.1221 44.7482 58.24 44.7244C58.4195 44.7198 58.5968 44.7647 58.7524 44.8543C58.908 44.9438 59.0359 45.0746 59.122 45.2321C59.3224 45.5326 59.4184 45.8905 59.3954 46.2509C59.3499 46.6577 59.314 47.0646 59.2913 47.4714C59.2685 47.8783 59.249 48.2721 59.2262 48.6561C59.2034 49.3819 59.1578 50.1078 59.0895 50.8433C59.0213 51.5692 58.9985 52.2986 59.0211 53.0273C59.0211 53.2779 59.0211 53.6782 59.0211 54.199C59.0211 54.7197 58.9983 55.2828 58.9853 55.8589C58.9723 56.435 58.9593 56.9883 58.9365 57.5188C58.9137 58.0493 58.9007 58.4399 58.9007 58.6873C58.8858 58.879 58.8858 59.0716 58.9007 59.2634C58.9007 59.4684 58.9007 59.6604 58.9007 59.8427V60.2463C58.8357 60.8091 58.8194 61.3764 58.8519 61.942C58.8844 62.5084 58.9007 63.0844 58.9007 63.6703C58.9235 64.1227 58.9365 64.5588 58.9365 64.9722C58.9339 65.408 58.9002 65.8431 58.8356 66.2741C58.79 66.4524 58.79 66.6393 58.8356 66.8176C58.9018 67.2714 58.9128 67.7315 58.8682 68.1879C58.8226 68.6533 58.777 69.109 58.7314 69.5614C58.732 69.7431 58.7211 69.9246 58.6989 70.1049L58.6306 70.6452C58.6044 70.8507 58.521 71.0448 58.3897 71.205C58.2282 71.3506 58.0237 71.4397 57.8071 71.4589C57.5174 71.5038 57.2247 71.5267 56.9316 71.5273C56.6451 71.5273 56.3522 71.5273 56.056 71.5631C55.9613 71.5666 55.8689 71.5328 55.7989 71.4688C55.7289 71.4049 55.6868 71.316 55.6817 71.2213C55.6398 71.0674 55.6168 70.9089 55.6134 70.7494C55.5906 70.1147 55.5874 69.4833 55.6134 68.8486C55.6394 68.2139 55.6655 67.5727 55.7338 66.9185L55.7989 66.4108L55.8673 64.1715C55.8901 63.4262 55.9031 62.6939 55.9031 61.9681C55.9259 61.4733 55.9291 60.9916 55.9031 60.4969C55.877 60.0022 55.9031 59.5205 55.9193 58.9867C55.9193 58.6612 55.9193 58.3097 55.9551 57.9712C55.9909 57.6327 55.9975 57.2812 56.0203 56.92C56.0203 56.7637 56.0202 56.4578 56.0398 56.0054C56.0593 55.553 56.0398 55.0712 56.0398 54.5635V52.2071C56.0625 51.9597 56.0788 51.7123 56.0886 51.4617C56.0984 51.2111 56.1081 50.967 56.1081 50.7164C56.1277 50.3323 56.1407 49.945 56.1407 49.5479V48.3795C56.1513 48.3016 56.1464 48.2224 56.1263 48.1465C56.1062 48.0705 56.0713 47.9992 56.0235 47.9368C55.9081 47.861 55.7707 47.8255 55.6329 47.8359C54.9331 47.8359 54.2366 47.8099 53.5499 47.7513C52.8631 47.6927 52.1634 47.6439 51.4636 47.5983L50.5132 47.4974C50.3852 47.4757 50.2557 47.4648 50.1259 47.4649H49.7451C49.7035 47.4589 49.6611 47.4627 49.6212 47.4759C49.5814 47.4892 49.5452 47.5116 49.5155 47.5413C49.4858 47.571 49.4634 47.6072 49.4502 47.647C49.4369 47.6869 49.4332 47.7293 49.4392 47.7708C49.4392 47.9726 49.4392 48.1809 49.4392 48.3958C49.4392 48.6106 49.4684 48.8189 49.4912 49.0239C49.4886 49.1204 49.4996 49.2169 49.5237 49.3103C49.5475 49.3929 49.5595 49.4783 49.5596 49.5642C49.6051 50.1533 49.6377 50.7457 49.6605 51.3446C49.6832 51.9434 49.706 52.5358 49.7288 53.1249C49.7516 53.5773 49.7614 54.1697 49.7614 54.902V57.1803C49.7614 57.9615 49.7614 58.7166 49.7614 59.4587C49.7614 60.2007 49.7321 60.7866 49.7093 61.2357C49.71 61.6272 49.6883 62.0185 49.6442 62.4075C49.5986 62.8013 49.5628 63.1918 49.54 63.5759C49.5173 63.7777 49.501 63.9893 49.4912 64.2041C49.4814 64.4189 49.475 64.637 49.475 64.855C49.4752 65.1893 49.4523 65.5231 49.4066 65.8542C49.3616 66.1871 49.282 66.5144 49.169 66.8307C48.9453 67.5105 48.6845 68.1777 48.3878 68.8291C48.2776 69.1201 48.1179 69.3898 47.9159 69.6265C47.712 69.8652 47.495 70.0963 47.265 70.3198C46.9057 70.6361 46.4743 70.8596 46.0086 70.9707C45.6029 71.0846 45.1896 71.1694 44.7718 71.2246C44.3403 71.2829 43.9053 71.3112 43.4699 71.3092C43.3904 71.315 43.3105 71.3039 43.2356 71.2766C43.1905 71.2835 43.1445 71.2809 43.1006 71.2689C43.0566 71.2569 43.0157 71.2358 42.9804 71.2069C42.9451 71.1781 42.9163 71.1421 42.8958 71.1015C42.8753 71.0608 42.8635 71.0162 42.8613 70.9707C42.8157 70.6452 42.7767 70.349 42.7441 70.0561C42.7116 69.7632 42.6693 69.4572 42.6237 69.1415C42.5893 69.0042 42.6079 68.8589 42.6758 68.7347C42.7869 68.6349 42.9211 68.5645 43.0663 68.5296C43.2862 68.4848 43.5034 68.4283 43.7173 68.3604L44.3422 68.1586C44.6765 68.0818 44.9891 67.9305 45.2568 67.716C45.5213 67.5004 45.7422 67.2364 45.9077 66.9381C46.1057 66.5695 46.2701 66.1839 46.3992 65.7859C46.5275 65.3782 46.6126 64.9582 46.6531 64.5328C46.7219 63.8504 46.7339 63.1635 46.6889 62.4791C46.6433 61.7934 46.6205 61.1099 46.6205 60.4286C46.6205 59.9794 46.6205 59.5335 46.6531 59.0909C46.6856 58.6482 46.6889 58.2056 46.6889 57.7532V53.3853C46.6889 52.8775 46.6889 52.5098 46.6531 52.2819C46.6075 51.2665 46.5457 50.2499 46.4675 49.2322C46.3884 48.205 46.3938 47.173 46.4838 46.1467C46.5066 46.0133 46.5229 45.8733 46.5359 45.7236C46.5458 45.5795 46.5743 45.4373 46.6205 45.3005C46.6391 45.1178 46.7201 44.9471 46.85 44.8172C46.9799 44.6873 47.1506 44.6063 47.3333 44.5877L47.6588 44.5226C47.7658 44.5001 47.8749 44.4881 47.9843 44.4868L50.5327 44.4185C51.2586 44.4445 51.9876 44.477 52.7264 44.5226" fill="white"/>
<path d="M19.1312 83.5663C19.3363 83.5955 19.5445 83.5955 19.7496 83.5663C19.9577 83.5373 20.1683 83.5307 20.3778 83.5468C20.3778 83.5012 20.3778 83.3905 20.3387 83.2213C20.2997 83.0521 20.2769 82.8307 20.2378 82.5964C20.1988 82.362 20.1499 82.1082 20.1011 81.8413C20.0523 81.5744 20.0035 81.327 19.9579 81.1057C19.9123 80.8844 19.87 80.7021 19.831 80.5622C19.7919 80.4222 19.7594 80.3506 19.7431 80.3506V80.3669C19.7431 80.3929 19.7203 80.5264 19.6715 80.7607C19.6227 80.9951 19.5673 81.2782 19.5087 81.6037C19.4502 81.9292 19.3851 82.2546 19.3167 82.6289C19.2484 83.0032 19.193 83.3027 19.1475 83.5761L19.1312 83.5663ZM22.0768 85.8316C22.1223 86.0594 22.1679 86.2873 22.22 86.5184C22.2687 86.7483 22.2883 86.9833 22.2785 87.2181C22.2794 87.278 22.2695 87.3375 22.2493 87.3939C22.2316 87.4374 22.2008 87.4743 22.1611 87.4995C22.1214 87.5246 22.0748 87.5366 22.0279 87.5338H21.9205C21.8359 87.5338 21.7448 87.5338 21.6504 87.5338C21.5615 87.5389 21.4724 87.5389 21.3835 87.5338C21.3119 87.5265 21.243 87.5032 21.1817 87.4655C21.1622 87.4037 21.1394 87.2962 21.1068 87.14C21.0743 86.9838 21.0385 86.8145 20.9994 86.6225C20.9604 86.4305 20.9148 86.2254 20.8693 86.0106L20.7423 85.415C20.7 85.2295 20.6675 85.07 20.6382 84.9365C20.6191 84.8541 20.6061 84.7703 20.5991 84.6859C20.355 84.6599 20.0751 84.6404 19.7659 84.6306C19.4859 84.6207 19.2056 84.6393 18.9294 84.6859C18.8353 84.8863 18.7696 85.0988 18.7341 85.3174C18.6918 85.5484 18.6495 85.7665 18.6039 85.9683C18.5681 86.0952 18.5356 86.2157 18.5096 86.3328C18.4835 86.45 18.4542 86.5737 18.4282 86.7006C18.4022 86.8276 18.3794 86.9968 18.3598 87.1498C18.3477 87.2972 18.2857 87.4361 18.1841 87.5436C18.1072 87.5493 18.0299 87.5493 17.953 87.5436H17.6828C17.5946 87.5438 17.5065 87.5373 17.4192 87.5241C17.3473 87.5146 17.2765 87.4982 17.2077 87.4753C17.171 87.2415 17.1677 87.0037 17.1979 86.769C17.2435 86.5281 17.302 86.2905 17.3704 86.0497C17.4387 85.8088 17.5103 85.5712 17.5852 85.3369C17.6599 85.1086 17.7208 84.876 17.7675 84.6404C17.8944 83.9894 18.0213 83.3612 18.1418 82.7266C18.2622 82.0919 18.3891 81.4507 18.5161 80.8095C18.6137 80.3474 18.7146 79.8852 18.8122 79.4295C18.9099 78.9739 19.0173 78.5117 19.1377 78.0495C19.1833 77.8672 19.2256 77.6915 19.2679 77.519C19.3102 77.3465 19.3558 77.1707 19.4079 76.9885C19.4194 76.9441 19.4398 76.9025 19.4677 76.8661C19.4957 76.8298 19.5307 76.7994 19.5706 76.7769C19.6507 76.7433 19.7379 76.7299 19.8245 76.7378C19.9242 76.7419 20.0233 76.7549 20.1206 76.7769L20.2443 76.7964C20.3025 76.8018 20.3579 76.824 20.4036 76.8605C20.4493 76.8969 20.4833 76.9459 20.5015 77.0015C20.521 77.0763 20.5405 77.1675 20.5633 77.2749C20.6089 77.519 20.6447 77.7826 20.6772 78.0625C20.7098 78.3424 20.7391 78.6093 20.7651 78.8567C20.7911 79.104 20.8107 79.2733 20.8204 79.3547C20.866 79.7365 20.9181 80.1141 20.9766 80.4873C21.0352 80.8649 21.1003 81.2424 21.1719 81.6232C21.2435 82.004 21.3347 82.4727 21.416 82.8893C21.4974 83.3059 21.5885 83.7258 21.6862 84.1522C21.761 84.4353 21.8229 84.712 21.8782 84.9886C21.9335 85.2653 21.9921 85.5452 22.054 85.8251" fill="white"/>
<path d="M25.1577 80.1782L25.1284 80.1945H25.1512L25.1577 80.1782ZM25.9714 79.7323C26.0692 79.5757 26.1293 79.3986 26.1471 79.2148C26.1667 79.0298 26.1667 78.8433 26.1471 78.6582C26.1309 78.4953 26.075 78.3389 25.9844 78.2026C25.8856 78.0749 25.7601 77.9705 25.6166 77.8966C25.4424 77.7835 25.2331 77.7372 25.0275 77.7664C24.8322 77.799 24.6337 77.8218 24.4254 77.8413C24.4254 78.2319 24.4579 78.642 24.4644 79.0716C24.4709 79.5012 24.4872 79.8723 24.5067 80.1782C24.5938 80.2235 24.6921 80.2427 24.7899 80.2336L25.1154 80.1945C25.2267 80.1693 25.3356 80.1345 25.4408 80.0903C25.5397 80.0494 25.6345 79.9993 25.724 79.9406C25.8128 79.8879 25.8893 79.8169 25.9486 79.7323H25.9714ZM26.3424 83.6868V83.2182C26.3426 83.0383 26.3285 82.8587 26.3001 82.6811C26.2759 82.5068 26.2333 82.3355 26.1732 82.1701C26.1227 82.0237 26.0312 81.8949 25.9095 81.7991C25.6809 81.7058 25.4371 81.655 25.1902 81.6494C24.9295 81.6395 24.6686 81.6669 24.4156 81.7307C24.4156 82.1636 24.4156 82.5639 24.4156 82.9252C24.4156 83.2865 24.4156 83.6413 24.4156 83.9798C24.4156 84.3183 24.4156 84.66 24.4416 84.9985C24.4677 85.337 24.4937 85.7048 24.549 86.0921C24.8355 86.0563 25.1056 86.027 25.3562 86.0042C25.4683 85.9993 25.5783 85.9724 25.68 85.9249C25.7816 85.8774 25.8729 85.8104 25.9486 85.7276C25.9913 85.6579 26.0231 85.5822 26.043 85.503C26.0885 85.3695 26.1374 85.2068 26.1862 85.0115C26.235 84.8162 26.2773 84.6047 26.3131 84.3606C26.3492 84.1334 26.3677 83.9038 26.3684 83.6738L26.3424 83.6868ZM26.951 81.3076C27.0776 81.454 27.1868 81.6146 27.2765 81.7861C27.3714 81.9977 27.4266 82.225 27.4392 82.4565C27.4392 82.6811 27.4392 82.9122 27.4392 83.1563C27.4392 83.5664 27.4393 83.97 27.4588 84.3736C27.4623 84.7816 27.4285 85.189 27.3579 85.5909C27.2967 85.9465 27.1602 86.285 26.9575 86.5836C26.7387 86.8791 26.4251 87.0905 26.069 87.1824C25.89 87.2313 25.7077 87.2703 25.5222 87.3029C25.3367 87.3354 25.1154 87.368 24.9136 87.4135L24.523 87.5079C24.4165 87.5344 24.3073 87.5486 24.1975 87.5502C24.0608 87.5502 23.9241 87.5502 23.7842 87.534H23.501C23.4541 87.5394 23.4067 87.5297 23.3657 87.5063C23.3247 87.4828 23.2923 87.4469 23.2732 87.4038C23.2288 87.2898 23.2088 87.1679 23.2146 87.0457C23.2146 86.8374 23.2146 86.6552 23.2146 86.5022L23.1853 85.1157V83.7422C23.1853 83.28 23.1853 82.8178 23.1853 82.3556C23.1853 81.4465 23.1853 80.5471 23.1853 79.6575C23.1853 78.8199 23.2048 77.9769 23.2439 77.1285C23.2476 77.0806 23.2673 77.0354 23.2997 77C23.3322 76.9646 23.3755 76.9411 23.4229 76.9332C23.5205 76.9332 23.6214 76.8942 23.7223 76.8681C23.8818 76.8291 24.0478 76.7933 24.191 76.7672C24.3635 76.7411 24.5374 76.7248 24.7118 76.7184C24.8911 76.7148 25.0704 76.7224 25.2488 76.7412C25.6039 76.7666 25.9546 76.8343 26.2936 76.943C26.4472 76.9972 26.5848 77.0889 26.6939 77.2099C26.806 77.3299 26.9073 77.4595 26.9966 77.5972C27.1621 77.8479 27.2648 78.1349 27.2961 78.4337C27.3314 78.7436 27.3226 79.057 27.27 79.3645C27.2146 79.6697 27.1137 79.9648 26.9706 80.2401C26.837 80.5032 26.6573 80.7402 26.4401 80.9398C26.4948 80.9868 26.5524 81.0303 26.6125 81.07L26.9575 81.3206" fill="white"/>
<path d="M29.5656 83.7682C29.5656 83.9504 29.5656 84.1457 29.5917 84.3605C29.6015 84.579 29.6265 84.7965 29.6665 85.0115C29.7065 85.2182 29.7653 85.4209 29.8423 85.6168C29.9177 85.8051 30.0371 85.9725 30.1905 86.1051C30.2845 86.1865 30.3958 86.2455 30.516 86.2776C30.6569 86.3168 30.8026 86.3365 30.9489 86.3362C31.0903 86.3387 31.2307 86.3132 31.3622 86.2613C31.4207 86.2407 31.4741 86.2077 31.5185 86.1644C31.5629 86.1211 31.5973 86.0686 31.6194 86.0107C31.6856 85.8455 31.7252 85.6708 31.7365 85.4932C31.7365 85.3044 31.7658 85.1319 31.7821 84.9789C31.7984 84.8259 31.8179 84.7446 31.8374 84.6307C31.8543 84.5164 31.863 84.4011 31.8635 84.2857C31.8632 84.1873 31.873 84.0891 31.8928 83.9927C31.8928 83.8983 31.9286 83.8007 31.9448 83.6998C31.9992 83.2736 32.0199 82.8437 32.0067 82.4142C32.0067 81.9943 31.9774 81.5647 31.9578 81.1318C31.9578 80.93 31.9578 80.7282 31.9578 80.5264C31.9578 80.3246 31.9806 80.1196 31.9806 79.9145C31.9808 79.7117 31.9645 79.5093 31.9318 79.3091C31.899 79.1078 31.8422 78.9111 31.7626 78.7233C31.7029 78.5756 31.601 78.4488 31.4696 78.3588C31.3411 78.2681 31.1964 78.2029 31.0433 78.1667C30.8525 78.1196 30.6522 78.1298 30.4672 78.196C30.3529 78.2406 30.2438 78.2973 30.1417 78.3653C30.043 78.4299 29.9677 78.5247 29.9269 78.6354C29.8813 78.7656 29.8325 78.8925 29.7869 79.0227C29.7171 79.2075 29.6691 79.3997 29.6437 79.5956C29.5981 79.8261 29.573 80.0603 29.5689 80.2953C29.5689 80.5264 29.5526 80.7608 29.5363 80.9951C29.4904 81.458 29.4785 81.9235 29.5005 82.3881C29.5233 82.8471 29.5428 83.3092 29.5624 83.7812L29.5656 83.7682ZM32.9929 78.9283C33.0552 79.4063 33.0737 79.8889 33.0482 80.3702C33.0189 80.8519 33.0124 81.3466 33.0189 81.8251C33.0189 82.2579 33.0189 82.6973 33.0189 83.127C33.0189 83.5566 33.0189 84.0025 32.9994 84.4289C32.9896 84.624 32.9896 84.8196 32.9994 85.0147C33.014 85.2315 33.014 85.4489 32.9994 85.6657C32.9821 85.8772 32.944 86.0866 32.8855 86.2906C32.8341 86.477 32.7328 86.6458 32.5925 86.7788C32.4396 86.9155 32.2671 87.0522 32.1173 87.1889C31.96 87.3205 31.7737 87.4131 31.5738 87.459C31.3543 87.515 31.1296 87.5477 30.9033 87.5567C30.6778 87.5636 30.4523 87.5407 30.2328 87.4883L29.9627 87.42C29.868 87.3937 29.7803 87.347 29.7056 87.2833C29.6373 87.2227 29.5591 87.1742 29.4745 87.1401C29.3894 87.1067 29.3111 87.0582 29.2434 86.9969C29.0936 86.8843 28.9721 86.7383 28.8886 86.5705C28.8073 86.4013 28.7324 86.245 28.6608 86.0595C28.5108 85.7065 28.4122 85.3339 28.3679 84.9529C28.3256 84.5851 28.293 84.2075 28.267 83.817C28.2474 83.5794 28.2344 83.3418 28.2247 83.1042C28.2149 82.8666 28.2084 82.6257 28.1986 82.3881C28.1889 82.1505 28.1791 81.9715 28.1726 81.7632C28.1661 81.5549 28.1726 81.3466 28.1726 81.1383C28.1726 80.93 28.1726 80.6826 28.1726 80.4516C28.1726 80.2205 28.1726 79.9894 28.1726 79.7583C28.1758 79.5283 28.1954 79.2988 28.2312 79.0716C28.2706 78.8481 28.335 78.6297 28.4232 78.4206C28.6145 77.9739 28.9063 77.5774 29.2759 77.2619C29.4873 77.0807 29.7381 76.9514 30.0083 76.8844C30.2837 76.8114 30.5665 76.7699 30.8512 76.7607C31.1203 76.7489 31.3873 76.812 31.6226 76.9429C31.8556 77.0753 32.0665 77.2433 32.2475 77.4409C32.3249 77.5366 32.4109 77.6249 32.5047 77.7046C32.5974 77.7855 32.6718 77.8854 32.7227 77.9975C32.794 78.1421 32.8465 78.2952 32.8789 78.4532C32.9085 78.6113 32.9465 78.7678 32.9929 78.9218" fill="white"/>
<path d="M40.9032 83.7815C40.9029 83.7177 40.8941 83.6543 40.8772 83.5928C40.8772 83.5016 40.8772 83.417 40.8772 83.3356C40.8772 83.2543 40.8772 83.1664 40.8576 83.0753V82.5382C40.8576 82.3592 40.8576 82.1769 40.8348 81.9947C40.8121 81.8124 40.8348 81.6334 40.8348 81.4511C40.8283 81.3601 40.8283 81.2688 40.8348 81.1777C40.8401 81.0834 40.8401 80.9889 40.8348 80.8946C40.8348 80.5691 40.8348 80.2436 40.8348 79.9182C40.8348 79.5927 40.8348 79.2672 40.8348 78.9417C40.8348 78.7334 40.8348 78.5219 40.8348 78.307C40.8348 78.0922 40.8349 77.8839 40.8609 77.6756V77.4738C40.8609 77.4087 40.8609 77.3404 40.8609 77.2688L40.8251 77.1874L40.7795 77.106C40.6884 77.106 40.6038 77.106 40.5224 77.106C40.4454 77.1111 40.3683 77.1111 40.2913 77.106L39.0415 77.0507H38.1627C38.0966 77.0469 38.0303 77.0469 37.9642 77.0507L37.7689 77.0768L37.7461 77.2427L37.7689 77.3925C37.7954 77.5811 37.8041 77.7718 37.7949 77.962C37.7949 78.1541 37.7721 78.3461 37.7558 78.5479C37.7363 78.6748 37.7201 78.8018 37.707 78.9352C37.694 79.0687 37.6875 79.1956 37.6875 79.3225C37.6866 79.6723 37.6594 80.0216 37.6061 80.3673C37.5508 80.7123 37.4955 81.0573 37.4434 81.4023C37.3887 81.7316 37.3159 82.0575 37.2253 82.3787C37.1342 82.7042 37.0398 83.0297 36.9389 83.3389C36.8966 83.4658 36.8445 83.5895 36.7925 83.7132C36.7368 83.8368 36.6726 83.9565 36.6004 84.0712L36.5353 84.1884L36.48 84.3023L36.4377 84.4325L36.3856 84.5627C36.4704 84.5791 36.5564 84.5878 36.6427 84.5887C36.724 84.5936 36.8055 84.5936 36.8868 84.5887L37.6192 84.5399L38.3515 84.5073C38.7127 84.4878 39.0708 84.4813 39.4288 84.4813H40.5061C40.5683 84.481 40.6304 84.4756 40.6916 84.465C40.7567 84.4614 40.8219 84.4614 40.8869 84.465L40.9032 83.7815ZM41.6908 85.8483L41.5151 85.8288H41.3524C41.0627 85.8288 40.7698 85.8288 40.4768 85.8288C40.1839 85.8288 39.891 85.8548 39.6013 85.8841C39.4576 85.9009 39.3131 85.9096 39.1684 85.9101H38.7193H37.6419C37.2872 85.9101 36.9259 85.9101 36.5646 85.8906C36.4627 85.8841 36.3605 85.8841 36.2587 85.8906H35.956H35.6305H35.305H35.1748L35.0447 85.9525L35.0251 86.0826L35.0447 86.2096C35.0716 86.3533 35.0814 86.4997 35.0739 86.6457C35.0739 86.7824 35.0511 86.9224 35.0316 87.0688L34.9926 87.2316C34.9744 87.2874 34.9399 87.3366 34.8934 87.3725C34.847 87.4085 34.7908 87.4297 34.7322 87.4334C34.6345 87.4334 34.5304 87.4334 34.4067 87.4334H34.0812C34.0258 87.438 33.9707 87.4209 33.9276 87.3857C33.8845 87.3504 33.8567 87.2999 33.8501 87.2446L33.8241 87.1339V87.0135L33.7558 86.1152L33.7004 85.3406V85.1778C33.7045 85.1299 33.7218 85.084 33.7506 85.0455C33.7794 85.0069 33.8184 84.9772 33.8632 84.9598L33.9641 84.9207L34.0812 84.8914C34.34 84.8595 34.5881 84.7694 34.807 84.6278C35.0216 84.4849 35.2071 84.3027 35.3539 84.0907L35.5198 83.8336C35.6175 83.6253 35.7086 83.4072 35.7965 83.1827C35.8817 82.9599 35.947 82.7301 35.9918 82.4959C36.0566 82.1732 36.1044 81.8472 36.135 81.5195C36.1675 81.194 36.2066 80.8685 36.2489 80.5431C36.2912 80.2176 36.3335 79.8335 36.3596 79.4755C36.3856 79.1175 36.4084 78.7595 36.4279 78.3949C36.4279 78.2517 36.4474 78.1085 36.4605 77.9685C36.4735 77.8286 36.4865 77.6854 36.4963 77.5389C36.506 77.3925 36.5223 77.1842 36.5223 77.0149C36.5221 76.8394 36.508 76.6642 36.48 76.4909C36.4629 76.4311 36.4584 76.3684 36.4668 76.3068C36.4752 76.2451 36.4963 76.1859 36.5288 76.1329C36.629 76.0485 36.7558 76.0023 36.8868 76.0027H38.7062L38.9504 76.0287C39.0316 76.0336 39.1132 76.0336 39.1945 76.0287L40.0342 76.0678C40.2587 76.0678 40.4866 76.0678 40.7112 76.0678H41.4044L41.7299 76.0971C41.7772 76.097 41.824 76.1065 41.8675 76.125C41.911 76.1435 41.9504 76.1706 41.9832 76.2046C42.016 76.2386 42.0416 76.2789 42.0585 76.3231C42.0754 76.3672 42.0832 76.4144 42.0814 76.4616L42.1009 76.6341V76.8034C42.0878 76.9702 42.0878 77.1378 42.1009 77.3046C42.1205 77.4673 42.1367 77.6301 42.1563 77.8091C42.1758 77.9881 42.1888 78.1769 42.2051 78.3656C42.2214 78.5544 42.2344 78.7464 42.2507 78.9385C42.2507 79.0296 42.2507 79.1175 42.2507 79.2086C42.2507 79.2997 42.2507 79.3941 42.2507 79.495C42.2507 79.7033 42.2507 79.9084 42.2507 80.1069C42.2507 80.3055 42.2507 80.504 42.2507 80.7058C42.2507 80.9597 42.2507 81.2103 42.2507 81.4576L42.2702 82.2127C42.2701 82.5009 42.2863 82.7889 42.319 83.0753C42.3516 83.3627 42.3581 83.6524 42.3385 83.941V84.1851C42.3385 84.2665 42.3385 84.3479 42.3385 84.4292C42.3359 84.4495 42.3379 84.4702 42.3445 84.4895C42.3511 84.5089 42.362 84.5265 42.3765 84.541C42.391 84.5555 42.4086 84.5664 42.428 84.573C42.4473 84.5796 42.468 84.5816 42.4883 84.5789H42.6119H42.7454L42.8821 84.6082C42.9342 84.6169 42.9826 84.6406 43.0214 84.6765C43.0601 84.7123 43.0875 84.7588 43.1002 84.81L43.1197 84.9337V85.0541C43.1392 85.282 43.149 85.5065 43.1555 85.7279C43.162 85.9492 43.1555 86.1738 43.175 86.4016V86.5513V86.7011L43.2011 86.8377C43.2282 86.9602 43.2073 87.0884 43.1425 87.1958C43.0564 87.2855 42.9408 87.341 42.817 87.352C42.7096 87.3715 42.5989 87.3846 42.4915 87.3943L42.166 87.4203H42.114H42.0586C41.9766 87.4206 41.8976 87.3899 41.8372 87.3344C41.7769 87.2789 41.7397 87.2026 41.7332 87.1209V86.9875V86.8508V86.4765C41.7332 86.3528 41.7332 86.2291 41.7332 86.1022C41.7396 86.0481 41.7396 85.9935 41.7332 85.9394L41.6908 85.8483Z" fill="white"/>
<path d="M52.7633 81.4678C52.7633 81.6663 52.7633 81.8584 52.7633 82.0439C52.7677 82.2366 52.7829 82.4289 52.8089 82.62C52.838 82.7854 52.9024 82.9426 52.998 83.0808C53.0935 83.219 53.2177 83.3349 53.3622 83.4206C53.4284 83.4582 53.5021 83.4808 53.5779 83.487C53.6538 83.4932 53.7301 83.4827 53.8016 83.4564C53.904 83.4232 53.997 83.3659 54.0728 83.2895C54.1487 83.2131 54.2052 83.1197 54.2378 83.017L54.2768 82.8576L54.3028 82.6948L54.4591 81.0674C54.4591 80.947 54.4591 80.8299 54.4591 80.7127C54.4526 80.5945 54.4526 80.4761 54.4591 80.3579C54.472 80.1639 54.472 79.9693 54.4591 79.7753C54.4591 79.5865 54.446 79.3978 54.42 79.209C54.4093 78.8987 54.3197 78.5962 54.1596 78.3302C54.0919 78.2011 53.9949 78.0896 53.8764 78.0047C53.793 77.9332 53.6856 77.8958 53.5758 77.9C53.466 77.9042 53.3618 77.9498 53.2841 78.0275L53.1929 78.1447C53.0988 78.2653 53.017 78.395 52.9488 78.532C52.8816 78.6711 52.8345 78.819 52.8089 78.9714C52.7315 79.4283 52.6966 79.8913 52.7047 80.3547C52.7047 80.5337 52.7047 80.7192 52.7047 80.9047C52.7047 81.0902 52.7048 81.2725 52.7308 81.4515L52.7633 81.4678ZM55.7056 80.755V80.9275V81.0902C55.7268 81.3632 55.7268 81.6374 55.7056 81.9104C55.6796 82.1806 55.6438 82.4507 55.6015 82.7176C55.5832 82.7793 55.5701 82.8425 55.5624 82.9064L55.5364 83.0789C55.5109 83.2259 55.4672 83.3691 55.4062 83.5053C55.3476 83.6452 55.2825 83.7787 55.2142 83.9056C55.1069 84.1165 54.9479 84.2968 54.752 84.4296C54.5541 84.5562 54.3327 84.6414 54.101 84.6802C53.5548 84.7682 52.9954 84.6524 52.529 84.3547C52.361 84.2632 52.2136 84.138 52.0961 83.987C51.9768 83.8328 51.8833 83.6602 51.8195 83.476C51.7122 83.1987 51.6475 82.9068 51.6274 82.6102C51.5753 81.9791 51.5622 81.3454 51.5884 80.7127C51.5875 80.5377 51.5962 80.3627 51.6144 80.1887L51.6632 79.6679C51.6632 79.5735 51.6632 79.4791 51.6827 79.388C51.7023 79.2969 51.6827 79.2057 51.6827 79.1113C51.6827 78.9226 51.7088 78.737 51.7348 78.5613C51.7609 78.3855 51.7967 78.213 51.839 78.0405C51.8778 77.9026 51.9406 77.7726 52.0245 77.6565C52.1057 77.5304 52.2031 77.4155 52.3142 77.3147C52.4676 77.1785 52.6424 77.0685 52.8317 76.9892C53.0181 76.9097 53.2122 76.8497 53.411 76.8102C53.776 76.7493 54.1507 76.7933 54.4916 76.9372C54.5815 76.9789 54.6686 77.0268 54.752 77.0804C54.8323 77.1364 54.9056 77.202 54.9701 77.2757L55.1686 77.5263C55.2337 77.6076 55.2955 77.6923 55.3574 77.7769C55.4143 77.8612 55.4633 77.9505 55.5038 78.0438C55.5432 78.1322 55.5717 78.2251 55.5884 78.3204C55.6145 78.4669 55.6373 78.6166 55.6601 78.7728L55.7186 79.2383C55.736 79.427 55.7458 79.6158 55.7479 79.8046C55.7479 79.9966 55.7479 80.1887 55.7675 80.3872L55.7056 80.755ZM54.9473 85.0545H55.302C55.4159 85.0545 55.5364 85.0545 55.6568 85.0545C55.7831 85.0432 55.9093 85.0754 56.0148 85.1457C56.1041 85.2545 56.1504 85.3923 56.145 85.533V85.8584C56.1482 85.9289 56.1394 85.9993 56.119 86.0667C56.1138 86.108 56.0943 86.1462 56.0641 86.1747C56.0338 86.2032 55.9945 86.2203 55.953 86.223H55.8358H55.7186C55.483 86.2131 55.2471 86.2196 55.0124 86.2425C54.778 86.262 54.5469 86.2913 54.3159 86.3239C54.2083 86.3425 54.0995 86.3534 53.9904 86.3564L53.6649 86.3759C53.4761 86.3759 53.2873 86.3987 53.1051 86.415L52.5453 86.4671L52.0994 86.5126C51.9511 86.5272 51.8017 86.5272 51.6535 86.5126H51.5265C51.4661 86.5062 51.4101 86.4778 51.3693 86.4328C51.3285 86.3878 51.3057 86.3293 51.3052 86.2685L51.2824 86.0863V85.9138V85.738V85.6208V85.5037C51.2853 85.4476 51.3072 85.3942 51.3444 85.3522C51.3817 85.3102 51.4321 85.2821 51.4875 85.2726C51.546 85.2573 51.606 85.2486 51.6665 85.2465L52.6071 85.1814L54.0783 85.0936C54.2215 85.0936 54.3679 85.0773 54.5144 85.0773L54.9473 85.0545ZM47.0415 80.2603V80.3514C47.0415 80.5337 47.0415 80.7094 47.0415 80.8884C47.0415 81.0674 47.0415 81.2432 47.0415 81.4222V81.6826C47.0415 81.7672 47.0415 81.8551 47.0415 81.9397C47.0415 82.2164 47.0415 82.4833 47.0415 82.7469C47.0415 83.0105 47.0415 83.2807 47.0089 83.5541C47.0089 83.7428 46.9829 83.9316 46.9829 84.1171V84.677C46.9829 84.8755 46.9829 85.0708 46.9569 85.2661C46.9308 85.4614 46.9243 85.6566 46.908 85.8519C46.8918 86.0472 46.8592 86.3174 46.8429 86.5452C46.8283 86.775 46.8283 87.0054 46.8429 87.2352V87.3784C46.6727 87.4514 46.487 87.4805 46.3026 87.463C46.0988 87.4528 45.8997 87.3972 45.7201 87.3003C45.7149 87.244 45.7149 87.1873 45.7201 87.131C45.7201 86.9943 45.7201 86.8576 45.7201 86.7242C45.7201 86.5908 45.7201 86.4573 45.7201 86.3174C45.7201 86.1774 45.7201 86.0635 45.7201 85.9366C45.7201 85.8096 45.7201 85.6892 45.7201 85.5688C45.7396 85.2075 45.7461 84.8495 45.7461 84.4914C45.7461 84.1334 45.7461 83.7754 45.7461 83.4141C45.7461 82.8543 45.7461 82.2945 45.7461 81.7412V80.0552C45.7461 79.8306 45.7461 79.6028 45.7461 79.375L45.7656 78.698C45.7852 78.4995 45.7982 78.3009 45.8112 78.0959C45.8242 77.8908 45.8405 77.6955 45.8567 77.497C45.8567 77.4026 45.873 77.305 45.8828 77.2073C45.8926 77.1097 45.9056 77.012 45.9218 76.9144L45.9479 76.8135C45.956 76.741 45.9908 76.6741 46.0456 76.626C46.1004 76.5778 46.1711 76.5518 46.2441 76.5531C46.4068 76.5531 46.5695 76.5531 46.7323 76.5531C46.8049 76.5552 46.8756 76.5769 46.9369 76.6159C46.9981 76.6548 47.0478 76.7096 47.0806 76.7744L47.1977 77.0055C47.2921 77.2301 47.3832 77.4482 47.4744 77.6565C47.5655 77.8648 47.6534 78.0828 47.738 78.3074C47.9105 78.7125 48.0615 79.1265 48.1904 79.5475C48.2587 79.7623 48.3304 79.9706 48.4085 80.1724C48.4866 80.3742 48.5582 80.5792 48.6266 80.7875C48.721 81.0805 48.8284 81.3669 48.952 81.6533L49.3068 82.506C49.3491 82.6265 49.3979 82.7404 49.45 82.8543L49.603 83.2026C49.6331 83.2747 49.6773 83.34 49.7331 83.3946L49.7527 83.3262V83.2807C49.769 83.1928 49.782 83.1114 49.7918 83.0268C49.8015 82.9422 49.7917 82.8576 49.8178 82.7632C49.8178 82.6102 49.8471 82.4377 49.8601 82.2977C49.8731 82.1578 49.8894 81.9723 49.9057 81.8193L49.9577 81.2399L50.0228 80.3221C50.0228 80.1496 50.0228 79.9771 50.0424 79.7981C50.0619 79.6191 50.0424 79.4433 50.0424 79.2643C50.0424 79.0853 50.0424 78.851 50.0424 78.6427C50.0424 78.4344 50.0424 78.226 50.0424 78.0112C50.0424 77.7964 50.0424 77.5979 50.0424 77.3896C50.0424 77.1813 50.0424 76.973 50.0424 76.7582L50.0684 76.5759C50.0733 76.5002 50.1064 76.429 50.1613 76.3766C50.2161 76.3241 50.2887 76.2942 50.3646 76.2927H50.4655H50.7909H51.1164C51.164 76.2947 51.2104 76.3086 51.2513 76.333C51.2923 76.3574 51.3265 76.3917 51.3508 76.4327C51.4024 76.5333 51.4281 76.6451 51.4256 76.7582C51.4256 76.9567 51.4256 77.1552 51.4256 77.357C51.4321 77.5623 51.4255 77.7677 51.4061 77.9722C51.3898 78.2456 51.3768 78.519 51.3703 78.7859C51.3638 79.0528 51.3475 79.3229 51.3312 79.5996C51.3117 79.9446 51.2987 80.2863 51.2857 80.6248C51.2727 80.9633 51.2531 81.3083 51.2271 81.6533C51.2011 81.9983 51.1945 82.3042 51.175 82.6297C51.1555 82.9552 51.1425 83.2807 51.1229 83.6061C51.1228 83.729 51.1163 83.8518 51.1034 83.9739C51.0904 84.0976 51.0806 84.2245 51.0741 84.3547C51.0741 84.5012 51.0546 84.6509 51.0481 84.8006C51.0416 84.9504 51.0481 85.1001 51.0481 85.2465C51.0481 85.5492 51.0481 85.8487 51.0481 86.1449C51.0481 86.441 51.0285 86.7405 51.0025 87.0432V87.1701C50.994 87.2292 50.9666 87.284 50.9243 87.3262C50.8821 87.3685 50.8273 87.3959 50.7682 87.4044C50.6612 87.4289 50.5523 87.4441 50.4427 87.45C50.3385 87.45 50.2311 87.45 50.1172 87.45C50.0404 87.4406 49.9683 87.4082 49.9102 87.3571C49.8521 87.306 49.8108 87.2386 49.7918 87.1636L49.7657 87.0725C49.6379 86.6308 49.4869 86.1963 49.3133 85.7706C49.1408 85.3474 48.9715 84.9178 48.799 84.4687C48.6265 84.0195 48.4378 83.5899 48.2588 83.1505C48.0798 82.7111 47.9138 82.2587 47.7673 81.7933C47.6827 81.5459 47.5915 81.3018 47.4971 81.0642C47.4027 80.8266 47.3084 80.5857 47.214 80.3351L47.1945 80.2765L47.0415 80.2603Z" fill="white"/>
<path d="M58.8596 78.3073C58.8162 79.2295 58.7913 80.0562 58.7848 80.7874C58.7783 81.5187 58.7783 82.2228 58.7848 82.8998C58.7848 83.5768 58.8043 84.2635 58.8173 84.9665C58.8303 85.6696 58.8369 86.454 58.8369 87.323C58.6861 87.389 58.523 87.4223 58.3584 87.4206C58.1925 87.429 58.0266 87.4047 57.8702 87.349C57.8441 86.5223 57.8278 85.777 57.8246 85.1065C57.8213 84.436 57.8246 83.8046 57.8246 83.1536C57.8246 82.5027 57.8246 81.8745 57.8246 81.2008C57.8246 80.5271 57.8246 79.798 57.8246 78.9778L57.7986 79.0299L57.7205 79.1731L57.6065 79.2968H57.4503C57.3368 79.2442 57.2279 79.1821 57.1249 79.1112C57.0164 79.0353 56.9154 78.9604 56.8221 78.8867C56.8323 78.7758 56.8729 78.67 56.9393 78.5807C57.0239 78.431 57.1216 78.2552 57.2355 78.0925C57.3494 77.9298 57.4568 77.741 57.561 77.575C57.6439 77.4508 57.7147 77.3189 57.7725 77.1812C57.8332 77.1306 57.9085 77.101 57.9873 77.0965C58.0954 77.0824 58.2048 77.0824 58.3128 77.0965C58.4222 77.1079 58.5308 77.1253 58.6383 77.1486C58.7157 77.1621 58.7919 77.1817 58.8661 77.2072C58.8747 77.2557 58.8747 77.3052 58.8661 77.3537V78.3073H58.8596Z" fill="white"/>
<path d="M27.0313 7.70769C27.1085 7.7249 27.1785 7.76531 27.2321 7.82349C27.2856 7.88167 27.32 7.95484 27.3308 8.03317C27.3535 8.36592 27.3371 8.70019 27.2819 9.02912C27.2038 9.59219 27.4284 11.1057 26.9207 11.2489C26.7314 11.3366 26.5179 11.3573 26.3153 11.3074C26.0441 11.2684 25.8423 11.2358 25.7099 11.2098C25.1696 11.1805 24.6456 11.148 24.1346 11.1089C23.6236 11.0698 23.0866 11.0471 22.543 11.0471L21.4462 11.0959C20.6889 11.1436 19.9295 11.1675 19.1678 11.1675H18.0157C17.6251 11.1675 17.241 11.1675 16.8667 11.2098C16.7835 11.7483 16.7703 12.2953 16.8277 12.8372C16.8798 13.4686 16.9058 14.0545 16.9058 14.5915L16.8277 17.3385C16.7973 18.2542 16.8103 19.1687 16.8667 20.0822C16.9492 22.315 16.9958 24.5348 17.0067 26.7415C17.0175 28.9482 17.0512 31.182 17.1076 33.443C17.1336 34.3836 17.1759 35.3373 17.228 36.3072C17.2836 37.2616 17.2705 38.2188 17.1889 39.1714C17.1629 39.2788 17.1597 40.4277 16.8049 40.6035C16.6537 40.6458 16.4939 40.6458 16.3427 40.6035C16.18 40.6035 16.0172 40.5774 15.8773 40.5644C15.7373 40.5514 15.3598 40.5384 15.171 40.5253C14.9822 40.5123 14.7869 40.5058 14.5851 40.5058H13.3516C13.2011 40.5049 13.0571 40.4446 12.951 40.3378C12.8448 40.2311 12.7853 40.0867 12.7853 39.9362C12.7853 39.3276 12.7853 38.3967 12.7853 38.042C12.8146 37.5049 12.8406 37.007 12.8666 36.548C12.8927 35.9297 12.8862 35.3105 12.8471 34.6928C12.8081 34.0744 12.7592 33.456 12.7072 32.8344C12.6508 31.1376 12.603 29.4635 12.564 27.8123C12.5249 26.161 12.5184 24.4848 12.5444 22.7837C12.5444 22.302 12.5444 21.8073 12.564 21.3126C12.5835 20.8178 12.5835 20.3361 12.5835 19.8381L12.7072 15.8023C12.7332 15.1513 12.7527 14.5004 12.7658 13.8657C12.7788 13.2196 12.7592 12.5732 12.7072 11.9291C12.6779 11.3628 12.6388 10.7932 12.5835 10.2138C12.5303 9.64712 12.5991 9.07558 12.7853 8.53765C12.826 8.37881 12.8955 8.22878 12.9903 8.09501C13.4916 7.44406 14.8976 7.6784 15.7341 7.73048C16.5706 7.78255 17.3875 7.81185 18.1947 7.81185C19.4054 7.83788 20.6162 7.84439 21.827 7.83137C23.0377 7.81836 24.2485 7.78472 25.4593 7.73048L26.4097 7.64911C26.6155 7.6316 26.8228 7.64476 27.0248 7.68816" fill="white"/>
<path d="M24.0304 44.8873L24.1378 44.7767C24.3347 44.7233 24.5364 44.6895 24.7399 44.6758C25.1142 44.627 25.7163 44.627 26.2599 44.6204C26.3646 44.6204 26.4651 44.6618 26.5395 44.7356C26.6139 44.8094 26.6561 44.9095 26.657 45.0143C26.657 45.5242 26.657 46.1751 26.657 46.9671C26.657 47.9435 26.6895 49.3756 26.7253 50.6255C26.7611 51.8753 26.7871 53.213 26.8099 54.6353C26.8327 56.0576 26.862 57.4897 26.8946 58.9316C26.9271 60.3734 26.9499 61.7827 26.9629 63.1465C26.9759 64.5102 26.9629 65.7503 26.9629 66.8634C26.9629 67.9765 26.9629 68.9302 26.9304 69.7146C26.9243 70.2585 26.8895 70.8017 26.8262 71.3419C26.6667 71.3875 26.4129 71.4363 26.0613 71.4949C25.7172 71.5509 25.3678 71.5683 25.0198 71.547C24.7086 71.5314 24.4025 71.462 24.115 71.3419C23.9966 71.2986 23.8951 71.2189 23.8249 71.1142C23.7547 71.0095 23.7195 70.8853 23.7244 70.7593C23.744 69.8513 23.757 68.9464 23.757 68.0481C23.757 67.1498 23.7342 66.245 23.6886 65.3369V62.5736C23.6886 61.8901 23.6886 61.1643 23.6724 60.3897C23.6561 59.6151 23.6496 58.9055 23.6365 58.2578C23.6235 57.6101 23.6138 57.0633 23.604 56.6305C23.6069 56.3745 23.5895 56.1188 23.5519 55.8656C23.476 56.0525 23.4193 56.2466 23.3827 56.4449C23.2916 56.8095 23.1711 57.2586 23.0214 57.7924C22.8717 58.3262 22.7133 58.9055 22.5462 59.5305C22.3737 60.1586 22.2207 60.7542 22.0352 61.3238C21.8497 61.8934 21.7097 62.3816 21.5568 62.7917C21.4669 63.0605 21.3581 63.3226 21.2313 63.5761C21.1062 63.779 20.9223 63.9391 20.704 64.035C20.5282 64.0941 20.3422 64.1173 20.1572 64.1034C19.9564 64.0927 19.7564 64.0699 19.5584 64.035C19.4689 64.0212 19.3787 64.0125 19.2882 64.009C19.1646 64.002 19.0453 63.9608 18.9436 63.8902C18.8419 63.8195 18.7618 63.7221 18.7121 63.6087L18.6047 63.3515C18.468 63.0261 18.3215 62.6322 18.1621 62.1766C18.0026 61.7209 17.8366 61.2425 17.6511 60.7445C17.4656 60.2465 17.2963 59.7681 17.1368 59.3287C16.9773 58.8893 16.8471 58.515 16.7462 58.2188C16.6453 57.9226 16.5802 57.7534 16.5575 57.7078C16.4891 57.6201 16.4422 57.5175 16.4208 57.4084C16.3882 57.2391 16.4208 57.4084 16.2515 56.9234C16.2515 58.6593 16.2396 60.2281 16.2157 61.6298C16.2157 62.2449 16.2157 62.8535 16.1994 63.4557C16.1832 64.0578 16.1767 64.6209 16.1669 65.1449C16.1571 65.6689 16.1441 66.1213 16.1311 66.5086C16.1181 66.896 16.1018 67.1596 16.079 67.3288C15.9884 68.0007 15.9601 68.6795 15.9944 69.3565C16.0239 69.9343 15.9758 70.5134 15.8512 71.0783C15.8353 71.1698 15.7943 71.255 15.7328 71.3245C15.6713 71.3941 15.5917 71.4452 15.5029 71.4721C15.103 71.5421 14.6947 71.5509 14.2922 71.4982C13.8815 71.4571 13.4791 71.3563 13.0977 71.1987C13.0342 71.1699 12.9798 71.1244 12.9403 71.0671C12.9007 71.0098 12.8775 70.9428 12.8731 70.8733C12.8319 69.1374 12.8319 67.4015 12.8731 65.6657C12.9089 63.869 12.9122 62.0594 12.8926 60.24V55.4783C12.8926 54.3652 12.9035 53.1945 12.9252 51.9664C12.948 50.7361 12.9805 49.6067 13.0261 48.5717C13.0716 47.5367 13.1172 46.6644 13.1628 45.9679C13.2083 45.2714 13.2767 44.8743 13.3678 44.806C13.5121 44.7821 13.6545 44.7484 13.7942 44.7051C13.9439 44.6595 15.5029 44.5065 15.6038 44.7669L15.861 45.4179C15.9261 45.6229 16.0693 46.3357 16.2873 46.9606C16.5054 47.5855 16.7463 48.3146 17.0197 49.1445C17.2931 49.9745 17.5827 50.85 17.8887 51.7711C18.1946 52.6922 18.481 53.545 18.7414 54.3294C19.0018 55.1138 19.2361 55.781 19.4412 56.3245C19.5496 56.6549 19.6868 56.9751 19.8513 57.2814C19.8954 57.2129 19.9294 57.1383 19.9522 57.0601C19.9977 56.9332 20.0498 56.7997 20.1084 56.65C20.167 56.5003 20.2158 56.3603 20.2614 56.2236C20.2956 56.1357 20.3185 56.0439 20.3297 55.9502C20.4412 55.6834 20.5379 55.4107 20.6194 55.1333C20.7887 54.6093 21.0067 53.9616 21.2704 53.1804C21.534 52.3993 21.8106 51.5726 22.1068 50.6743C22.403 49.776 22.6862 48.9265 22.9596 48.1323C23.233 47.3382 23.4706 46.6579 23.6756 46.1013C23.8514 45.6229 23.9783 45.0891 24.0532 44.8743" fill="white"/>
<path d="M15.6835 87.749C15.5153 87.8243 15.334 87.8664 15.1497 87.8727C14.8894 87.902 14.616 87.9182 14.3296 87.928C14.0431 87.9378 13.7828 87.928 13.5419 87.928C13.4033 87.934 13.2645 87.923 13.1286 87.8955C13.0779 87.7941 13.0491 87.6832 13.0439 87.57C13.0439 87.4333 13.0439 87.2901 13.0439 87.1501C13.0439 87.0102 13.0667 86.8767 13.0862 86.7628C13.091 86.6925 13.1098 86.6239 13.1416 86.561C13.1416 86.561 13.2164 86.561 13.3434 86.561C13.4703 86.561 13.6168 86.5968 13.7893 86.6098C13.9812 86.62 14.1735 86.62 14.3654 86.6098C14.5605 86.6074 14.754 86.5733 14.9382 86.5089C15.1088 86.4469 15.2602 86.3414 15.3776 86.203C15.5077 86.0382 15.5767 85.8335 15.5729 85.6236V85.0996C15.5729 84.8425 15.5729 84.5691 15.5371 84.2827C15.5013 83.9963 15.4785 83.7294 15.4329 83.4755C15.417 83.2905 15.3455 83.1147 15.2279 82.971C15.0995 82.8611 14.9483 82.7811 14.7852 82.7367C14.6059 82.6835 14.4232 82.6421 14.2384 82.613C14.0594 82.587 13.9129 82.5674 13.7697 82.5577C13.6604 82.5478 13.5517 82.5315 13.4443 82.5089L13.4052 82.4763V81.9914C13.4052 81.8709 13.4052 81.7635 13.4052 81.6659C13.4052 81.5682 13.4052 81.5422 13.4052 81.5129L13.4313 81.4869C13.6916 81.4869 13.9715 81.4869 14.2742 81.4869C14.5655 81.4817 14.8525 81.4164 15.1172 81.2948C15.2373 81.2376 15.3413 81.1515 15.4199 81.0442C15.4929 80.9466 15.547 80.8362 15.5794 80.7187C15.6117 80.5978 15.6259 80.4728 15.6217 80.3477L15.6022 79.9604C15.5729 79.7488 15.5533 79.5405 15.5371 79.3322C15.5235 79.1209 15.4942 78.9109 15.4492 78.7041C15.4297 78.6129 15.4101 78.5088 15.3874 78.3981C15.365 78.2935 15.3367 78.1903 15.3027 78.0889C15.2717 77.9942 15.2255 77.9052 15.166 77.8253C15.1021 77.7446 15.0194 77.6809 14.9252 77.6397C14.7536 77.5643 14.5713 77.516 14.3849 77.4965C14.1939 77.4705 14.0052 77.4542 13.8186 77.4477H13.5972C13.4801 77.4477 13.3499 77.464 13.2132 77.4672C13.1676 77.4699 13.122 77.4699 13.0765 77.4672H12.8031L12.7543 77.3794C12.7543 77.2589 12.7543 77.1255 12.738 76.979C12.7217 76.8326 12.7022 76.3867 12.8226 76.3639C12.943 76.3411 12.9007 76.3639 13.0667 76.3639H13.5679H13.9487C14.3081 76.3558 14.6668 76.4008 15.0131 76.4973C15.361 76.5873 15.6824 76.7592 15.9504 76.9986C16.199 77.2218 16.3729 77.5161 16.4484 77.8415C16.522 78.1631 16.5731 78.4893 16.6014 78.818C16.6176 79.0588 16.6339 79.2997 16.6437 79.5438C16.6535 79.7879 16.6665 80.0287 16.6827 80.2696C16.699 80.5104 16.712 80.6699 16.712 80.8424C16.7126 81.0064 16.6962 81.17 16.6632 81.3306C16.6295 81.4905 16.5713 81.6442 16.4907 81.7863C16.3918 81.9542 16.2715 82.1085 16.1327 82.2452C16.1327 82.2452 16.1685 82.268 16.2141 82.3461C16.2648 82.4357 16.3104 82.5281 16.3508 82.6228C16.3963 82.7302 16.4419 82.8311 16.4842 82.9255C16.5265 83.0199 16.5493 83.0817 16.5591 83.1012C16.6915 83.5479 16.768 84.0092 16.7869 84.4747C16.81 84.9368 16.8035 85.4 16.7674 85.8612C16.7441 86.2403 16.6457 86.611 16.4777 86.9516C16.3047 87.2906 16.029 87.5662 15.69 87.7392" fill="white"/>
</svg>
