<svg width="99" height="75" viewBox="0 0 99 75" fill="none" xmlns="http://www.w3.org/2000/svg">
<path d="M56.6299 65.8076L56.6359 69.3923C56.6401 71.9265 54.5623 74 52.0282 74H5.60771C3.07348 74 1 71.9265 1 69.3923V5.60771C1 3.07348 3.07348 1 5.60771 1H52.0282C54.5624 1 56.6362 3.07357 56.6359 5.60771L56.6337 20.3612M56.6359 40.6826V32.08" stroke="black" stroke-miterlimit="22.9256" stroke-linecap="round" stroke-linejoin="round"/>
<path d="M13.294 17.1236C15.727 17.1236 17.6993 15.1513 17.6993 12.7183C17.6993 10.2853 15.727 8.31299 13.294 8.31299C10.861 8.31299 8.88867 10.2853 8.88867 12.7183C8.88867 15.1513 10.861 17.1236 13.294 17.1236Z" stroke="black" stroke-miterlimit="22.9256" stroke-linecap="round" stroke-linejoin="round"/>
<path d="M22.7871 10.1455H35.9296" stroke="black" stroke-miterlimit="22.9256" stroke-linecap="round" stroke-linejoin="round"/>
<path d="M22.7871 14.2803H31.4876" stroke="black" stroke-miterlimit="22.9256" stroke-linecap="round" stroke-linejoin="round"/>
<path d="M8.88867 26.0811H28.3821" stroke="black" stroke-miterlimit="22.9256" stroke-linecap="round" stroke-linejoin="round"/>
<path d="M8.88867 30.6113H39.7499" stroke="black" stroke-miterlimit="22.9256" stroke-linecap="round" stroke-linejoin="round"/>
<path d="M8.88867 35.1411H39.7499" stroke="black" stroke-miterlimit="22.9256" stroke-linecap="round" stroke-linejoin="round"/>
<path d="M8.88867 39.6709H39.7499" stroke="black" stroke-miterlimit="22.9256" stroke-linecap="round" stroke-linejoin="round"/>
<path d="M8.88867 44.2012H39.7499" stroke="black" stroke-miterlimit="22.9256" stroke-linecap="round" stroke-linejoin="round"/>
<path d="M8.88867 48.731H39.7499" stroke="black" stroke-miterlimit="22.9256" stroke-linecap="round" stroke-linejoin="round"/>
<path d="M8.88867 53.2607H39.7499" stroke="black" stroke-miterlimit="22.9256" stroke-linecap="round" stroke-linejoin="round"/>
<path d="M95.9065 40.7266H47.5861C46.2344 40.7266 45.1387 41.8223 45.1387 43.174V63.3487C45.1387 64.7004 46.2344 65.7962 47.5861 65.7962H95.9065C97.2582 65.7962 98.354 64.7004 98.354 63.3487V43.174C98.354 41.8223 97.2582 40.7266 95.9065 40.7266Z" stroke="black" stroke-miterlimit="22.9256" stroke-linecap="round" stroke-linejoin="round"/>
<path d="M52.6619 51.0401C54.4815 51.0401 55.9566 49.565 55.9566 47.7454C55.9566 45.9258 54.4815 44.4507 52.6619 44.4507C50.8423 44.4507 49.3672 45.9258 49.3672 47.7454C49.3672 49.565 50.8423 51.0401 52.6619 51.0401Z" stroke="black" stroke-miterlimit="22.9256" stroke-linecap="round" stroke-linejoin="round"/>
<path d="M59.0312 45.8213H68.8603" stroke="black" stroke-miterlimit="22.9256" stroke-linecap="round" stroke-linejoin="round"/>
<path d="M59.0312 48.9131H65.5381" stroke="black" stroke-miterlimit="22.9256" stroke-linecap="round" stroke-linejoin="round"/>
<path d="M8.88867 61.2666H22.7899" stroke="black" stroke-miterlimit="22.9256" stroke-linecap="round" stroke-linejoin="round"/>
<path d="M8.88867 65.7959H22.7899" stroke="black" stroke-miterlimit="22.9256" stroke-linecap="round" stroke-linejoin="round"/>
<path d="M94.6532 51.3013H74.9864C74.584 51.3013 74.2578 51.6506 74.2578 52.0815V61.1775C74.2578 61.6084 74.584 61.9577 74.9864 61.9577H94.6532C95.0556 61.9577 95.3818 61.6084 95.3818 61.1775V52.0815C95.3818 51.6506 95.0556 51.3013 94.6532 51.3013Z" stroke="black" stroke-miterlimit="22.9256" stroke-linecap="round" stroke-linejoin="round"/>
<path d="M77.8984 55.0835H87.7276" stroke="black" stroke-miterlimit="22.9256" stroke-linecap="round" stroke-linejoin="round"/>
<path d="M77.8984 58.1748H84.4054" stroke="black" stroke-miterlimit="22.9256" stroke-linecap="round" stroke-linejoin="round"/>
<path d="M65.9637 20.3613H46.1426C45.5881 20.3613 45.1387 20.869 45.1387 21.4953V30.8435C45.1387 31.4698 45.5881 31.9776 46.1426 31.9776H65.9637C66.5181 31.9776 66.9676 31.4698 66.9676 30.8435V21.4953C66.9676 20.869 66.5181 20.3613 65.9637 20.3613Z" stroke="black" stroke-miterlimit="22.9256" stroke-linecap="round" stroke-linejoin="round"/>
<path d="M49.7043 26.3174C50.6025 26.3174 51.3305 25.5893 51.3305 24.6912C51.3305 23.793 50.6025 23.0649 49.7043 23.0649C48.8062 23.0649 48.0781 23.793 48.0781 24.6912C48.0781 25.5893 48.8062 26.3174 49.7043 26.3174Z" stroke="black" stroke-miterlimit="22.9256" stroke-linecap="round" stroke-linejoin="round"/>
<path d="M53.752 23.7422H59.1091" stroke="black" stroke-miterlimit="22.9256" stroke-linecap="round" stroke-linejoin="round"/>
<path d="M53.752 26.0317H64.4663" stroke="black" stroke-miterlimit="22.9256" stroke-linecap="round" stroke-linejoin="round"/>
<path d="M53.752 28.3203H64.4663" stroke="black" stroke-miterlimit="22.9256" stroke-linecap="round" stroke-linejoin="round"/>
<path fill-rule="evenodd" clip-rule="evenodd" d="M84.3166 1C84.3166 1 87.0699 3.47802 87.0516 5.25847C87.0332 7.03901 86.1705 8.76444 84.5185 8.70933C82.8665 8.65422 81.7651 6.74533 82.4994 5.36859C83.4315 3.62106 84.4294 3.36715 84.3167 1H84.3166Z" stroke="black" stroke-miterlimit="22.9256" stroke-linecap="round" stroke-linejoin="round"/>
<path d="M86.334 15.1889L89.1607 8.71066L92.1893 6.23145L92.7571 10.1702L90.8494 15.1889" stroke="black" stroke-miterlimit="22.9256" stroke-linecap="round" stroke-linejoin="round"/>
<path d="M89.1621 8.71094L92.7585 10.1704" stroke="black" stroke-miterlimit="22.9256" stroke-linecap="round" stroke-linejoin="round"/>
<path d="M88.5215 15.1889L90.9621 9.44043" stroke="black" stroke-miterlimit="22.9256" stroke-linecap="round" stroke-linejoin="round"/>
<path d="M76.1668 15.1891L72.6426 5.85544L78.1492 3.83643L82.6647 15.1891" stroke="black" stroke-miterlimit="22.9256" stroke-linecap="round" stroke-linejoin="round"/>
<path d="M78.7461 5.3374L77.7656 5.69691" stroke="black" stroke-miterlimit="22.9256" stroke-linecap="round" stroke-linejoin="round"/>
<path d="M79.5235 7.29443L78.543 7.65394" stroke="black" stroke-miterlimit="22.9256" stroke-linecap="round" stroke-linejoin="round"/>
<path d="M80.2305 9.07373L79.25 9.43324" stroke="black" stroke-miterlimit="22.9256" stroke-linecap="round" stroke-linejoin="round"/>
<path d="M80.8869 10.7207L79.9062 11.0802" stroke="black" stroke-miterlimit="22.9256" stroke-linecap="round" stroke-linejoin="round"/>
<path d="M81.4922 12.2412L80.5117 12.6008" stroke="black" stroke-miterlimit="22.9256" stroke-linecap="round" stroke-linejoin="round"/>
<path d="M85.3984 8.5498L86.3351 15.1895" stroke="black" stroke-miterlimit="22.9256" stroke-linecap="round" stroke-linejoin="round"/>
<path d="M83.6279 8.48486L82.6641 15.1883" stroke="black" stroke-miterlimit="22.9256" stroke-linecap="round" stroke-linejoin="round"/>
<path fill-rule="evenodd" clip-rule="evenodd" d="M75.3087 15.189C80.7221 15.189 86.1354 15.189 91.5488 15.189V28.6555C91.5488 30.5534 89.9959 32.1063 88.0979 32.1063C84.9851 32.1063 81.8723 32.1063 78.7595 32.1063C76.8615 32.1063 75.3086 30.5534 75.3086 28.6555V15.189H75.3087Z" stroke="black" stroke-miterlimit="22.9256" stroke-linecap="round" stroke-linejoin="round"/>
<path d="M83.4273 27.3131C85.4517 27.3131 87.0929 25.6719 87.0929 23.6475C87.0929 21.6231 85.4517 19.9819 83.4273 19.9819C81.4028 19.9819 79.7617 21.6231 79.7617 23.6475C79.7617 25.6719 81.4028 27.3131 83.4273 27.3131Z" stroke="black" stroke-miterlimit="22.9256" stroke-linecap="round" stroke-linejoin="round"/>
</svg>
