<svg width="55" height="55" viewBox="0 0 55 55" fill="none" xmlns="http://www.w3.org/2000/svg">
<g clip-path="url(#clip0)">
<path d="M6.41383 4.60572C6.41383 5.11172 6.00357 5.52198 5.49756 5.52198C4.99156 5.52198 4.5813 5.11172 4.5813 4.60572C4.5813 4.09971 4.99156 3.68945 5.49756 3.68945C6.00357 3.68945 6.41383 4.09971 6.41383 4.60572Z" fill="white"/>
<path d="M10.079 4.60572C10.079 5.11172 9.66872 5.52198 9.16272 5.52198C8.65672 5.52198 8.24646 5.11172 8.24646 4.60572C8.24646 4.09971 8.65672 3.68945 9.16272 3.68945C9.66872 3.68945 10.079 4.09971 10.079 4.60572Z" fill="white"/>
<path d="M13.744 4.60572C13.744 5.11172 13.3338 5.52198 12.8278 5.52198C12.3218 5.52198 11.9115 5.11172 11.9115 4.60572C11.9115 4.09971 12.3218 3.68945 12.8278 3.68945C13.3338 3.68945 13.744 4.09971 13.744 4.60572Z" fill="white"/>
<path d="M19.2416 3.68945C18.7356 3.68945 18.3253 4.09971 18.3253 4.60572C18.3253 5.11172 18.7356 5.52198 19.2416 5.52198H42.1482C42.6542 5.52198 43.0645 5.11172 43.0645 4.60572C43.0645 4.09971 42.6542 3.68945 42.1482 3.68945H19.2416Z" fill="white"/>
<path d="M13.2125 44.9219H1.83253V9.18755H42.1481C42.6542 9.18755 43.0644 8.77728 43.0644 8.27128C43.0644 7.76528 42.6542 7.35502 42.1481 7.35502H1.83253V1.85743H44.8969V13.2374C44.8969 13.7434 45.3072 14.1536 45.8132 14.1536C46.3192 14.1536 46.7295 13.7434 46.7295 13.2374V0.941167C46.7295 0.435163 46.3192 0.0249023 45.8132 0.0249023H0.916264C0.410261 0.0249023 0 0.435163 0 0.941167V45.8381C0 46.3441 0.410261 46.7544 0.916264 46.7544H13.2125C13.7185 46.7544 14.1287 46.3441 14.1287 45.8381C14.1287 45.3321 13.7185 44.9219 13.2125 44.9219Z" fill="white"/>
<path d="M54.7101 50.8397L49.6706 45.8369L52.6212 43.867C52.925 43.6684 53.0834 43.3091 53.0243 42.9507C52.963 42.5937 52.6973 42.3065 52.3461 42.2175L40.0409 38.9466C39.726 38.8647 39.3918 38.9555 39.1618 39.1855C38.9318 39.4154 38.841 39.7496 38.9229 40.0646L42.1482 52.3697C42.2372 52.7209 42.5244 52.9867 42.881 53.048C43.2393 53.107 43.5991 52.9487 43.7973 52.6449L45.8132 49.6943L50.8527 54.7338C51.0254 54.9051 51.2598 55.0009 51.5032 54.9995C51.7466 55.0009 51.981 54.9051 52.1537 54.7338L54.7468 52.1407C54.9155 51.964 55.0067 51.7268 54.9996 51.4826C54.9929 51.2383 54.8886 51.007 54.7101 50.8397ZM51.4665 52.7912L46.2803 47.6054C46.1098 47.4359 45.8794 47.3406 45.6392 47.3397H45.5475C45.2754 47.3674 45.0303 47.5151 44.8786 47.7428L43.4125 49.9328L41.0945 41.1182L49.9091 43.4362L47.7191 44.9206C47.4914 45.0723 47.3437 45.3175 47.316 45.5895C47.291 45.861 47.3885 46.1299 47.5818 46.3223L52.7675 51.5085L51.4665 52.7912Z" fill="white"/>
<path d="M38.0799 48.1367C36.1686 48.9304 34.1357 49.3921 32.0692 49.5021V41.2558C33.4239 41.2875 34.7759 41.3944 36.119 41.5765C36.625 41.6472 37.093 41.2947 37.1636 40.7887C37.2343 40.2822 36.8818 39.8147 36.3758 39.744C34.9472 39.557 33.5093 39.4501 32.0692 39.4232V32.0931H41.2318C41.1853 33.5301 41.0448 34.9627 40.8104 36.3814C40.7267 36.8874 41.0694 37.3652 41.5754 37.4489C42.0814 37.5321 42.5592 37.1898 42.6429 36.6834C42.8863 35.1645 43.0272 33.6308 43.0643 32.0931H49.4782C49.3829 34.1569 48.9368 36.1895 48.1588 38.1039C47.9691 38.5692 48.1897 39.1011 48.6536 39.2948C48.7637 39.3418 48.8818 39.3669 49.0017 39.3682C49.3771 39.3686 49.7149 39.14 49.854 38.7911C50.8324 36.3724 51.3273 33.7856 51.3107 31.1769C51.3129 26.447 49.6451 21.8684 46.601 18.2485C42.7753 13.6716 37.1185 11.0244 31.1529 11.019H30.493C26.0436 11.1649 21.7661 12.7755 18.3252 15.6004C17.9328 15.9216 17.8756 16.5001 18.1968 16.8924C18.5185 17.2844 19.0965 17.3421 19.4889 17.0204C21.0807 15.7109 22.8797 14.6765 24.8124 13.9602C23.2841 15.6232 22.0842 17.56 21.2758 19.6685C19.7135 19.2252 18.1829 18.6775 16.6944 18.0284C16.3312 17.8749 15.9102 17.9707 15.6498 18.2668C15.6498 18.2668 15.6037 18.2668 15.5854 18.3219C12.6209 21.939 11.0018 26.4725 11.004 31.1496C11.0045 35.8356 12.6446 40.3735 15.6404 43.9773L15.7048 44.0502C19.5153 48.6539 25.1766 51.3235 31.1529 51.3347C33.7648 51.3364 36.3516 50.826 38.7671 49.8319C39.0901 49.7236 39.3263 49.4449 39.38 49.1084C39.4342 48.772 39.2968 48.4333 39.0239 48.2293C38.751 48.0253 38.3873 47.9899 38.0799 48.1367ZM30.2366 49.4198C27.3138 48.9523 24.739 46.2129 23.0806 42.181C25.428 41.6289 27.8261 41.3184 30.2366 41.2558V49.4198ZM30.2366 39.4232C27.6095 39.4774 24.9954 39.812 22.4394 40.4218C21.5952 37.7236 21.1353 34.9198 21.074 32.0931H30.2366V39.4232ZM12.8732 32.0931H19.2415C19.2987 35.0902 19.7801 38.0636 20.6709 40.926C19.313 41.3224 17.9794 41.7967 16.6761 42.3461C14.3872 39.3991 13.0598 35.8199 12.8732 32.0931ZM39.1702 20.1817C36.8402 20.7266 34.4609 21.0335 32.0692 21.0979V12.9433C34.9647 13.4287 37.5117 16.1775 39.1702 20.1817ZM30.2366 30.2606H21.074C21.1313 27.4237 21.5943 24.61 22.4484 21.9042C25.0003 22.5229 27.6113 22.8669 30.2366 22.9305V30.2606ZM32.0692 22.9305C34.6748 22.8746 37.267 22.5426 39.8024 21.9408C40.6533 24.6346 41.1159 27.4362 41.1768 30.2606H32.0692V22.9305ZM49.4782 30.2606H43.0643C43.0098 27.2671 42.5315 24.2964 41.6443 21.4371C43.0214 21.0416 44.3739 20.5642 45.6941 20.0076C47.9763 22.9569 49.297 26.536 49.4782 30.2606ZM44.4387 18.5415C43.3207 18.9912 42.1798 19.3826 41.0211 19.7146C40.2176 17.5908 39.0105 15.6429 37.4661 13.9786C40.0918 14.9534 42.4608 16.5139 44.3931 18.5415H44.4387ZM30.2366 12.9339V21.0979C27.8261 21.038 25.4285 20.7311 23.0806 20.1817C24.739 16.1408 27.3138 13.4014 30.2366 12.9339ZM19.2415 30.2606H12.8276C13.0169 26.5374 14.3371 22.9609 16.6117 20.0076C17.9181 20.557 19.2553 21.0313 20.6159 21.4277C19.7421 24.2923 19.2795 27.2662 19.2415 30.2606ZM17.9127 43.8122C19.0133 43.3701 20.1358 42.9849 21.2758 42.6574C22.0815 44.7553 23.2752 46.6827 24.7941 48.3385C22.1853 47.3739 19.8316 45.8254 17.9127 43.8122Z" fill="white"/>
<path d="M52.3003 22.3624C52.4408 22.7047 52.7732 22.9288 53.1432 22.9306C53.2636 22.9338 53.3826 22.9087 53.4913 22.8573C53.9552 22.6631 54.1758 22.1316 53.9861 21.6663C53.043 19.3864 51.7576 17.2639 50.1743 15.3715C49.8383 15.0708 49.3332 15.0596 48.9838 15.3446C48.6348 15.63 48.5449 16.1275 48.7726 16.5168C50.2369 18.2759 51.4266 20.2472 52.3003 22.3624Z" fill="white"/>
<path d="M12.1222 15.3712C8.43348 19.8125 6.41439 25.4036 6.41394 31.1768C6.41394 31.6828 6.8242 32.0931 7.3302 32.0931C7.83621 32.0931 8.24647 31.6828 8.24647 31.1768C8.2411 25.8224 10.1117 20.6353 13.5333 16.5166C13.8572 16.1269 13.804 15.5484 13.4143 15.2245C13.0246 14.9006 12.4462 14.9543 12.1222 15.3439V15.3712Z" fill="white"/>
</g>
<defs>
<clipPath id="clip0">
<rect width="55" height="55" fill="white"/>
</clipPath>
</defs>
</svg>
