<svg width="55" height="55" viewBox="0 0 55 55" fill="none" xmlns="http://www.w3.org/2000/svg">
<g clip-path="url(#clip0)">
<path d="M27.4995 24.2772C30.4611 24.2772 32.8706 21.8677 32.8706 18.9062C32.8706 15.9446 30.4611 13.5352 27.4995 13.5352C24.538 13.5352 22.1285 15.9446 22.1285 18.9062C22.1285 21.8677 24.538 24.2772 27.4995 24.2772ZM27.4995 15.6836C29.2765 15.6836 30.7222 17.1292 30.7222 18.9062C30.7222 20.6831 29.2765 22.1288 27.4995 22.1288C25.7226 22.1288 24.2769 20.6831 24.2769 18.9062C24.2769 17.1292 25.7226 15.6836 27.4995 15.6836Z" fill="white"/>
<path d="M19.6287 48.4218C19.1027 46.14 17.119 44.4093 14.715 44.267C13.3128 41.3688 10.0369 39.5593 6.64856 40.0379C3.10681 40.5378 0 44.0155 0 47.4802C0 51.3719 3.39061 54.9996 7.73425 54.9996H22.6657C23.2588 54.9996 23.7399 54.5187 23.7399 53.9254C23.7399 53.3321 23.2588 52.8512 22.6657 52.8512H7.73425C4.75861 52.8512 2.1484 50.3414 2.1484 47.4802C2.1484 45.0964 4.48136 42.5135 6.9488 42.1653C9.1305 41.857 11.3089 42.8779 12.4523 44.6225C11.7613 44.8907 11.1269 45.3003 10.5963 45.8318C10.1771 46.2516 10.1776 46.9318 10.5974 47.3511C10.8071 47.5604 11.0818 47.6651 11.3564 47.6651C11.6316 47.6651 11.9067 47.5599 12.1165 47.3499C12.6583 46.8072 13.3665 46.4423 14.3942 46.4061C16.1711 46.4061 17.6168 47.8518 17.6168 49.6287C17.6168 50.222 18.0978 50.7029 18.691 50.7029C21.7189 50.7029 24.2769 48.2433 24.2769 45.3319V41.4648H30.7221V45.3319C30.7221 48.2433 33.2801 50.7029 36.3079 50.7029C36.9011 50.7029 37.3821 50.222 37.3821 49.6287C37.3821 47.8518 38.8278 46.4061 40.6027 46.4061C41.5714 46.4362 42.3107 46.7772 42.8825 47.3499C43.2999 47.768 43.9799 47.7719 44.4016 47.3511C44.8214 46.9319 44.8219 46.2517 44.4028 45.8318C43.8721 45.3003 43.2377 44.8907 42.5467 44.6225C43.6898 42.8781 45.8678 41.8573 48.0504 42.1653C50.5643 42.5197 52.8971 45.1449 52.8508 47.5668C52.7951 50.4312 50.2371 52.8512 47.2648 52.8512H32.3335C31.7403 52.8512 31.2593 53.3321 31.2593 53.9254C31.2593 54.5187 31.7403 54.9996 32.3335 54.9996H47.2649C51.3794 54.9996 54.921 51.6149 54.9989 47.6081C55.0663 44.0843 51.9596 40.5469 48.3507 40.0379C44.9607 39.5595 41.6859 41.3698 40.2842 44.267C37.8801 44.4092 35.8964 46.14 35.3705 48.4218C33.9618 48.0183 32.8706 46.7466 32.8706 45.3318V41.4647H33.9448C34.4833 41.4647 34.9384 41.066 35.0095 40.5324L35.4582 37.1679H40.1859C42.0754 37.1679 43.6126 35.6307 43.6126 33.7411C43.6126 32.9242 43.3198 32.1324 42.7879 31.5113L37.0977 24.8729L37.6509 20.724C38.7443 12.5172 34.7514 4.17427 28.0524 0.153643C27.712 -0.0505632 27.287 -0.0505632 26.9467 0.153643C20.2461 4.17513 16.255 12.5189 17.3481 20.7243L17.9014 24.873L12.2109 31.5117C11.6794 32.1325 11.3865 32.9242 11.3865 33.7411C11.3865 35.6307 12.9238 37.1679 14.8132 37.1679H19.5409L19.9896 40.5324C20.0607 41.066 20.5159 41.4647 21.0544 41.4647H22.1286V45.3318C22.1286 46.7466 21.0374 48.0183 19.6287 48.4218ZM41.1564 32.9092C41.3549 33.141 41.4642 33.4364 41.4642 33.7413C41.4642 34.4461 40.8907 35.0196 40.1859 35.0196H35.7447L36.7168 27.7298L41.1564 32.9092ZM27.4996 2.34319C29.1359 3.41879 30.6035 4.81267 31.8273 6.44567H23.1718C24.3956 4.81267 25.8632 3.41879 27.4996 2.34319ZM21.7814 8.59408H33.2179C35.2403 12.2294 36.0581 16.412 35.5215 20.4402L33.577 35.0194H21.422L19.4778 20.4404C18.9411 16.4121 19.7589 12.2296 21.7814 8.59408ZM14.8132 35.0194C14.1084 35.0194 13.5349 34.446 13.5349 33.7411C13.5349 33.4364 13.6443 33.1409 13.8424 32.9095L18.2824 27.7298L19.2544 35.0194H14.8132ZM21.7084 37.1679H33.2906L33.0043 39.3163H21.9949L21.7084 37.1679Z" fill="white"/>
<path d="M27.4996 54.9995C28.0929 54.9995 28.5739 54.5186 28.5739 53.9253C28.5739 53.332 28.0929 52.8511 27.4996 52.8511C26.9064 52.8511 26.4254 53.332 26.4254 53.9253C26.4254 54.5186 26.9064 54.9995 27.4996 54.9995Z" fill="white"/>
</g>
<defs>
<clipPath id="clip0">
<rect width="55" height="55" fill="white"/>
</clipPath>
</defs>
</svg>
