<svg width="99" height="75" viewBox="0 0 99 75" fill="none" xmlns="http://www.w3.org/2000/svg">
<path d="M32.1387 74.0005H67.218" stroke="black" stroke-miterlimit="22.9256" stroke-linecap="round" stroke-linejoin="round"/>
<path d="M39.3182 62.5933V67.0342C39.3182 70.8654 36.1833 74.0003 32.3521 74.0003H24.6289M60.237 62.5933V67.0342C60.237 70.8654 63.3717 74.0003 67.2031 74.0003H74.9263" stroke="black" stroke-miterlimit="22.9256" stroke-linecap="round" stroke-linejoin="round"/>
<path d="M1 51.0293H98.356" stroke="black" stroke-miterlimit="22.9256" stroke-linecap="round" stroke-linejoin="round"/>
<path fill-rule="evenodd" clip-rule="evenodd" d="M5.72244 62.5931H93.6335C96.2308 62.5931 98.356 60.468 98.356 57.8707V5.72244C98.356 3.12511 96.2308 1 93.6335 1H5.72244C3.12511 1 1 3.12511 1 5.72244V57.8707C1 60.468 3.12511 62.5931 5.72244 62.5931V62.5931Z" stroke="black" stroke-miterlimit="22.9256" stroke-linecap="round" stroke-linejoin="round"/>
<path d="M71.0236 51.0291L71.6488 49.9185C71.6488 49.9185 72.1431 49.0399 72.3714 48.6345C72.5994 48.2292 72.2153 47.8729 72.2153 47.8729C72.2153 47.8729 71.2113 47.1046 70.863 46.8198C70.6025 46.6064 70.5359 46.3308 70.519 46.2056C70.9627 45.0293 71.2836 43.7935 71.4664 42.5136C71.543 42.4111 71.7332 42.2044 72.0615 42.1433C72.5036 42.061 73.7534 41.8701 73.7534 41.8701C73.7534 41.8701 74.2617 41.7424 74.2566 41.2773C74.2515 40.812 74.2404 39.8041 74.2404 39.8041C74.2404 39.8041 74.2295 38.796 74.2242 38.3309C74.2192 37.8657 73.7083 37.7493 73.7083 37.7493C73.7083 37.7493 72.4547 37.5858 72.0107 37.5131C71.6907 37.4607 71.4974 37.2683 71.4147 37.1651C71.2053 35.8768 70.8561 34.636 70.3831 33.4587C70.4027 33.3238 70.4712 33.0689 70.7101 32.8642C71.0522 32.5717 72.039 31.7815 72.039 31.7815C72.039 31.7815 72.4151 31.4169 72.1783 31.0165C71.9413 30.6164 71.4278 29.7488 71.4278 29.7488C71.4278 29.7488 70.9141 28.8814 70.6771 28.4811C70.44 28.0807 69.9394 28.2355 69.9394 28.2355C69.9394 28.2355 68.7721 28.7205 68.3511 28.8797C68.0581 28.9903 67.8025 28.9287 67.6743 28.8811C66.8552 27.8809 65.9282 26.9728 64.9114 26.1746C64.8613 26.0454 64.798 25.7944 64.9005 25.504C65.0502 25.0796 65.5098 23.9018 65.5098 23.9018C65.5098 23.9018 65.6536 23.3981 65.2481 23.1698C64.8427 22.9415 63.9641 22.4471 63.9641 22.4471C63.9641 22.4471 63.0856 21.9527 62.6802 21.7245C62.2748 21.4964 61.9186 21.8806 61.9186 21.8806C61.9186 21.8806 61.1503 22.8844 60.8653 23.2329C60.6773 23.4623 60.4409 23.5412 60.302 23.5684C59.0992 23.1117 57.8334 22.7834 56.5218 22.6C56.4128 22.5093 56.2433 22.3265 56.189 22.0345C56.1067 21.5923 55.9155 20.3425 55.9155 20.3425C55.9155 20.3425 55.7881 19.8344 55.3228 19.8394C54.8576 19.8445 53.8496 19.8556 53.8496 19.8556C53.8496 19.8556 52.8417 19.8666 52.3765 19.8717C51.9113 19.8768 51.7948 20.3877 51.7948 20.3877C51.7948 20.3877 51.6314 21.6412 51.5588 22.0853C51.5109 22.377 51.3471 22.5632 51.2401 22.6566C49.9307 22.8683 48.6704 23.2246 47.4757 23.7082C47.3356 23.6831 47.1005 23.6088 46.9096 23.3858C46.6171 23.0437 45.827 22.057 45.827 22.057C45.827 22.057 45.4624 21.6808 45.0619 21.9176C44.6617 22.1547 43.7941 22.6682 43.7941 22.6682C43.7941 22.6682 42.9267 23.1819 42.5265 23.419C42.1264 23.656 42.2808 24.1566 42.2808 24.1566C42.2808 24.1566 42.7661 25.3238 42.9253 25.7448C43.0319 26.0272 42.9783 26.2751 42.9317 26.4075C41.9273 27.2308 41.0164 28.1632 40.2162 29.1861C40.0858 29.2359 39.8372 29.2971 39.5492 29.1954C39.1251 29.0456 37.9473 28.5861 37.9473 28.5861C37.9473 28.5861 37.4434 28.4423 37.2151 28.8479C36.9869 29.2533 36.4926 30.1319 36.4926 30.1319C36.4926 30.1319 35.9981 31.0103 35.77 31.4157C35.5419 31.8212 35.9259 32.1773 35.9259 32.1773C35.9259 32.1773 36.9298 32.9457 37.2782 33.2307C37.5138 33.4237 37.5907 33.6674 37.6158 33.8048C37.165 34.9994 36.8407 36.2558 36.6592 37.5571C36.5741 37.6646 36.3874 37.8497 36.08 37.9068C35.6377 37.9892 34.3879 38.1803 34.3879 38.1803C34.3879 38.1803 33.8798 38.3078 33.8848 38.773C33.89 39.2382 33.901 40.2463 33.901 40.2463C33.901 40.2463 33.9121 41.2541 33.9174 41.7193C33.9223 42.1845 34.4332 42.301 34.4332 42.301C34.4332 42.301 35.6869 42.4645 36.1308 42.5371C36.4479 42.589 36.6403 42.7784 36.7244 42.8822C36.9358 44.1672 37.2864 45.4045 37.7601 46.5784C37.7429 46.7096 37.6781 46.975 37.4313 47.1862C37.0894 47.4785 36.1026 48.2688 36.1026 48.2688C36.1026 48.2688 35.7263 48.6335 35.9632 49.0338C36.2003 49.4341 36.7139 50.3017 36.7139 50.3017L37.1447 51.0292" stroke="black" stroke-miterlimit="22.9256" stroke-linecap="round" stroke-linejoin="round"/>
<path fill-rule="evenodd" clip-rule="evenodd" d="M53.9617 30.4713C59.2208 30.4138 63.5447 34.6436 63.6023 39.903C63.6599 45.1623 59.4301 49.4864 54.1706 49.5439C48.9112 49.6014 44.5875 45.3716 44.5299 40.1121C44.4722 34.8527 48.702 30.5289 53.9617 30.4713Z" stroke="black" stroke-miterlimit="22.9256" stroke-linecap="round" stroke-linejoin="round"/>
<path fill-rule="evenodd" clip-rule="evenodd" d="M23.9703 17.6025C20.2793 17.4772 17.1848 20.3878 17.0587 24.1034C16.9325 27.8189 19.8223 30.9327 23.5134 31.058C27.2043 31.1833 30.2988 28.2728 30.425 24.5572C30.5511 20.8417 27.6612 17.7279 23.9703 17.6025V17.6025Z" stroke="black" stroke-miterlimit="22.9256" stroke-linecap="round" stroke-linejoin="round"/>
<path fill-rule="evenodd" clip-rule="evenodd" d="M21.3204 13.0863C20.2248 13.3249 19.1855 13.7224 18.2288 14.2543L18.2286 14.2537C18.2286 14.2537 17.8341 14.3484 17.4667 14.0695C17.0991 13.7906 16.0921 12.973 16.0921 12.973C16.0921 12.973 15.6451 12.6753 15.297 13.0026C14.949 13.3299 14.195 14.0391 14.195 14.0391C14.195 14.0391 13.4409 14.7484 13.0929 15.0757C12.7449 15.403 13.0098 15.8723 13.0098 15.8723C13.0098 15.8723 13.7517 16.939 14.0032 17.3271C14.2397 17.6921 14.1471 18.0585 14.1351 18.1009C13.5391 19.0298 13.0716 20.052 12.7596 21.1422C12.7185 21.2023 12.5055 21.4855 12.0987 21.5431C11.6427 21.6075 10.3562 21.7466 10.3562 21.7466C10.3562 21.7466 9.83057 21.8544 9.81433 22.3335C9.79808 22.8125 9.76286 23.8505 9.76286 23.8505C9.76286 23.8505 9.72756 24.8885 9.71131 25.3675C9.69507 25.8466 10.2121 25.9898 10.2121 25.9898C10.2121 25.9898 11.4862 26.2158 11.9368 26.3109C12.3288 26.3938 12.5224 26.6783 12.566 26.7507C12.8034 27.8671 13.2023 28.925 13.7377 29.898C13.7521 29.9808 13.7927 30.3238 13.5509 30.6464C13.2737 31.0166 12.4612 32.0306 12.4612 32.0306C12.4612 32.0306 12.1651 32.4809 12.49 32.8308C12.8151 33.181 13.5194 33.94 13.5194 33.94C13.5194 33.94 14.2235 34.6985 14.5484 35.0488C14.8733 35.3991 15.3397 35.1322 15.3397 35.1322C15.3397 35.1322 16.3998 34.3848 16.7855 34.1315C17.1162 33.9144 17.448 33.9726 17.5359 33.9935C18.4669 34.6003 19.4922 35.0754 20.587 35.3904C20.6656 35.448 20.9188 35.6604 20.9727 36.0467C21.0365 36.5058 21.1739 37.8008 21.1739 37.8008C21.1739 37.8008 21.2809 38.3297 21.7567 38.3459C22.2326 38.3621 23.2637 38.3971 23.2637 38.3971C23.2637 38.3971 24.2948 38.4321 24.7707 38.4483C25.2466 38.4644 25.3891 37.944 25.3891 37.944C25.3891 37.944 25.6141 36.6613 25.7089 36.2076C25.789 35.8248 26.0573 35.6297 26.1389 35.5784C27.2516 35.3386 28.3061 34.9345 29.2755 34.3927C29.3617 34.3779 29.6992 34.34 30.0165 34.5808C30.3841 34.8597 31.3909 35.6773 31.3909 35.6773C31.3909 35.6773 31.8381 35.9752 32.1861 35.6477C32.5341 35.3204 33.2882 34.6113 33.2882 34.6113C33.2882 34.6113 34.0423 33.9018 34.3903 33.5746C34.7383 33.2474 34.4734 32.7781 34.4734 32.7781C34.4734 32.7781 33.7316 31.7113 33.48 31.3232C33.2579 30.9803 33.326 30.6363 33.345 30.5609C33.9437 29.628 34.4128 28.6015 34.725 27.5059C34.7695 27.4415 34.9822 27.1642 35.3845 27.1072C35.8405 27.0428 37.127 26.9037 37.127 26.9037C37.127 26.9037 37.6526 26.7959 37.6689 26.3168C37.6851 25.8378 37.7203 24.7998 37.7203 24.7998C37.7203 24.7998 37.7556 23.7618 37.7718 23.2828C37.7881 22.8037 37.271 22.6605 37.271 22.6605C37.271 22.6605 35.9969 22.4344 35.5463 22.3394C35.1342 22.2522 34.9416 21.9423 34.9116 21.8902C34.6746 20.7843 34.2786 19.7361 33.7489 18.7711L33.7487 18.7708C33.7456 18.7563 33.6602 18.3672 33.9322 18.0039C34.2095 17.6338 35.022 16.6198 35.022 16.6198C35.022 16.6198 35.318 16.1696 34.993 15.8195C34.6681 15.4692 33.9638 14.7105 33.9638 14.7105C33.9638 14.7105 33.2595 13.9518 32.9346 13.6015C32.6098 13.2512 32.1434 13.5181 32.1434 13.5181C32.1434 13.5181 31.0834 14.2654 30.6977 14.5187C30.3122 14.7721 29.9249 14.6508 29.9249 14.6508L29.9242 14.6519C29.006 14.0564 27.9963 13.5891 26.9194 13.2766L26.9196 13.276C26.9196 13.276 26.5742 13.0624 26.5104 12.6035C26.4466 12.1444 26.3092 10.8494 26.3092 10.8494C26.3092 10.8494 26.2022 10.3205 25.7264 10.3044C25.2505 10.2882 24.2194 10.2532 24.2194 10.2532C24.2194 10.2532 23.1883 10.2182 22.7124 10.202C22.2365 10.1859 22.094 10.7063 22.094 10.7063C22.094 10.7063 21.869 11.989 21.7742 12.4427C21.6794 12.8962 21.3203 13.0859 21.3203 13.0859L21.3205 13.0862L21.3204 13.0863Z" stroke="black" stroke-miterlimit="22.9256" stroke-linecap="round" stroke-linejoin="round"/>
<path d="M76.7812 15.918L89.6457 28.7824" stroke="black" stroke-miterlimit="22.9256" stroke-linecap="round" stroke-linejoin="round"/>
<path d="M76.7812 15.918L79.707 24.8969" stroke="black" stroke-miterlimit="22.9256" stroke-linecap="round" stroke-linejoin="round"/>
<path d="M76.7812 15.918L85.7602 18.8437" stroke="black" stroke-miterlimit="22.9256" stroke-linecap="round" stroke-linejoin="round"/>
<path d="M73.8656 13.0019L71.0605 10.1968" stroke="black" stroke-miterlimit="22.9256" stroke-linecap="round" stroke-linejoin="round"/>
<path d="M73.0471 15.8052H69.0801" stroke="black" stroke-miterlimit="22.9256" stroke-linecap="round" stroke-linejoin="round"/>
<path d="M76.6699 12.1829V8.21582" stroke="black" stroke-miterlimit="22.9256" stroke-linecap="round" stroke-linejoin="round"/>
<path d="M82.1879 10.5146L79.3828 13.3197" stroke="black" stroke-miterlimit="22.9256" stroke-linecap="round" stroke-linejoin="round"/>
<path d="M74.188 18.5142L71.3828 21.3192" stroke="black" stroke-miterlimit="22.9256" stroke-linecap="round" stroke-linejoin="round"/>
</svg>
